<svg version="1.1" xmlns="http://www.w3.org/2000/svg" width="117" height="119">
<path d="M0 0 C38.61 0 77.22 0 117 0 C117 39.27 117 78.54 117 119 C78.39 119 39.78 119 0 119 C0 79.73 0 40.46 0 0 Z " fill="#FCFCFD" transform="translate(0,0)"/>
<path d="M0 0 C5.43478261 0.43478261 5.43478261 0.43478261 7 2 C6.28 8.72 6.28 8.72 5 10 C1.5 9.6875 1.5 9.6875 -2 9 C-2.495 8.01 -2.495 8.01 -3 7 C-4.89533342 6.53476937 -4.89533342 6.53476937 -7.0625 6.375 C-8.361875 6.25125 -9.66125 6.1275 -11 6 C-11 10.29 -11 14.58 -11 19 C-9.515 19.226875 -8.03 19.45375 -6.5 19.6875 C-1.78837241 20.59512231 1.40467002 22.19927204 5.2109375 25.07421875 C6.96276971 26.17561937 6.96276971 26.17561937 9.0078125 25.87109375 C12.18619897 24.48132868 13.97755274 21.97581435 16.21875 19.3984375 C18 18 18 18 20.09765625 18.16015625 C22 19 22 19 23.9375 21.0625 C25.83205205 23.28528144 25.83205205 23.28528144 28.5 23 C31 23 31 23 33.375 24.625 C35 27 35 27 34.75 30.25 C34.37875 31.61125 34.37875 31.61125 34 33 C30.535 33.495 30.535 33.495 27 34 C24.45635271 31.01397927 23.66949191 28.82566805 23 25 C22.00916033 22.76591887 22.00916033 22.76591887 21 21 C17.49503731 22.94720149 14.50032784 24.82650697 12 28 C12.43482846 31.28926692 13.92165659 33.86860563 15.5 36.75 C17.84271476 41.30040273 18.71738219 44.91287944 19 50 C23.95 50 28.9 50 34 50 C34 53.63 34 57.26 34 61 C35.32 61.66 36.64 62.32 38 63 C38 64.98 38 66.96 38 69 C35.75804887 70.36118461 34.52173238 71.06138028 31.875 70.75 C30 70 30 70 28 68 C27.6875 65.5625 27.6875 65.5625 28 63 C28.474375 62.566875 28.94875 62.13375 29.4375 61.6875 C32.00914674 58.91012153 31.6969156 55.69762964 32 52 C27.71 52 23.42 52 19 52 C18.9175 52.94875 18.835 53.8975 18.75 54.875 C17.95732861 60.49262766 16.05709686 66.94290314 12 71 C12.25076955 74.85052606 14.36611645 76.68201567 17.0625 79.25 C17.79597656 79.95640625 18.52945313 80.6628125 19.28515625 81.390625 C20.13400391 82.18726562 20.13400391 82.18726562 21 83 C19.1875 86.8359375 19.1875 86.8359375 17.5 88.3125 C15.25459795 90.83857731 14.87792867 93.78092823 14 97 C12 99 12 99 9.5625 99.375 C7 99 7 99 5.125 97.25 C4 95 4 95 4.0625 92.9375 C5.30043597 90.37909899 6.55029344 89.42899549 9 88 C10.2684375 87.7834375 10.2684375 87.7834375 11.5625 87.5625 C14.17068378 87.21028015 14.17068378 87.21028015 15.8125 84.9375 C16.204375 84.298125 16.59625 83.65875 17 83 C15.93283928 81.79794536 14.84561663 80.61367667 13.75 79.4375 C13.14671875 78.77621094 12.5434375 78.11492187 11.921875 77.43359375 C10.12977796 75.76783359 10.12977796 75.76783359 7.99609375 76.16015625 C6.0113474 76.99522565 4.1825113 77.93366232 2.3125 79 C-2.04419961 81.26449923 -6.14121492 81.77505625 -11 82 C-10.98839844 83.07121094 -10.97679687 84.14242187 -10.96484375 85.24609375 C-10.95546701 86.64322743 -10.94636669 88.04036299 -10.9375 89.4375 C-10.92912109 90.14455078 -10.92074219 90.85160156 -10.91210938 91.58007812 C-10.90346412 93.38693559 -10.94779989 95.19387603 -11 97 C-12.98983893 98.98983893 -16.85542617 98.37391574 -19.5546875 98.5234375 C-22.39271107 99.07653475 -23.05870961 99.97071911 -25 102 C-28.1875 101.6875 -28.1875 101.6875 -31 101 C-31.495 97.535 -31.495 97.535 -32 94 C-29 92 -29 92 -25.8125 92.375 C-24.884375 92.58125 -23.95625 92.7875 -23 93 C-22.67 93.99 -22.34 94.98 -22 96 C-19.36 96 -16.72 96 -14 96 C-14 91.71 -14 87.42 -14 83 C-15.65 82.773125 -17.3 82.54625 -19 82.3125 C-23.99609721 81.44445222 -27.28060769 79.94569935 -31.24609375 76.828125 C-33.00643002 75.75348081 -33.00643002 75.75348081 -34.98828125 76.6328125 C-37.1756844 78.11939716 -38.91618603 79.72065472 -40.75 81.625 C-41.36359375 82.25664063 -41.9771875 82.88828125 -42.609375 83.5390625 C-43.06828125 84.02117187 -43.5271875 84.50328125 -44 85 C-47.8359375 83.1953125 -47.8359375 83.1953125 -49.3125 81.4375 C-51.88500861 79.24610378 -54.71629543 79.41792604 -58 79 C-60 77 -60 77 -60.25 74 C-60 71 -60 71 -58 69 C-54.375 69.375 -54.375 69.375 -51 70 C-50.938125 71.0725 -50.87625 72.145 -50.8125 73.25 C-50.33854041 77.13531961 -50.33854041 77.13531961 -47.4375 79.4375 C-46.633125 79.953125 -45.82875 80.46875 -45 81 C-42.36 78.36 -39.72 75.72 -37 73 C-37.42152344 72.31035156 -37.84304687 71.62070313 -38.27734375 70.91015625 C-41.86934266 64.74882165 -43.76584191 60.14182188 -44 53 C-45.07121094 53.01160156 -46.14242187 53.02320313 -47.24609375 53.03515625 C-48.64322743 53.04453299 -50.04036299 53.05363331 -51.4375 53.0625 C-52.14455078 53.07087891 -52.85160156 53.07925781 -53.58007812 53.08789062 C-55.38693559 53.09653588 -57.19387603 53.05220011 -59 53 C-60 52 -60 52 -60.09765625 49.71484375 C-60.08605469 48.79832031 -60.07445312 47.88179687 -60.0625 46.9375 C-60.05347656 46.01839844 -60.04445313 45.09929688 -60.03515625 44.15234375 C-60.01775391 43.08693359 -60.01775391 43.08693359 -60 42 C-60.99 41.67 -61.98 41.34 -63 41 C-63.33 38.69 -63.66 36.38 -64 34 C-61 32 -61 32 -57.875 32.3125 C-55 33 -55 33 -54 34 C-53.95919217 35.99958364 -53.95745644 38.00045254 -54 40 C-55.32 40.66 -56.64 41.32 -58 42 C-58 44.64 -58 47.28 -58 50 C-53.71 50 -49.42 50 -45 50 C-44.773125 48.35 -44.54625 46.7 -44.3125 45 C-43.44482418 40.04276389 -41.97230925 36.7272653 -38.92578125 32.75390625 C-37.82255439 31.03388532 -37.82255439 31.03388532 -38.12890625 28.99609375 C-39.51731743 25.81457756 -42.02252717 24.02388942 -44.6015625 21.78125 C-46 20 -46 20 -45.83203125 17.89453125 C-45 16 -45 16 -43.0625 14.1875 C-40.40370372 11.36756455 -39.91148273 8.71604497 -39 5 C-38.67 4.67 -38.34 4.34 -38 4 C-31.28 4.72 -31.28 4.72 -30 6 C-29.71731425 8.68551458 -29.60176688 10.36751211 -31.0625 12.6875 C-33 14 -33 14 -36.5625 14.9375 C-37.696875 15.288125 -38.83125 15.63875 -40 16 C-40.66 17.32 -41.32 18.64 -42 20 C-39.69 22.31 -37.38 24.62 -35 27 C-34.0821875 26.4946875 -33.164375 25.989375 -32.21875 25.46875 C-30.97962365 24.81163754 -29.74001396 24.15543595 -28.5 23.5 C-27.59894531 22.99919922 -27.59894531 22.99919922 -26.6796875 22.48828125 C-26.07382812 22.17246094 -25.46796875 21.85664063 -24.84375 21.53125 C-24.29912109 21.23798828 -23.75449219 20.94472656 -23.19335938 20.64257812 C-21 20 -21 20 -13 20 C-13 14.72 -13 9.44 -13 4 C-10.49348958 3.83723958 -7.98697917 3.67447917 -5.48046875 3.51171875 C-2.63366639 2.92442567 -1.94587408 2.0456625 0 0 Z " fill="#F2F3F5" transform="translate(70,6)"/>
<path d="M0 0 C5.43478261 0.43478261 5.43478261 0.43478261 7 2 C6.28 8.72 6.28 8.72 5 10 C1.5 9.6875 1.5 9.6875 -2 9 C-2.495 8.01 -2.495 8.01 -3 7 C-4.89533342 6.53476937 -4.89533342 6.53476937 -7.0625 6.375 C-8.361875 6.25125 -9.66125 6.1275 -11 6 C-11 10.29 -11 14.58 -11 19 C-9.515 19.226875 -8.03 19.45375 -6.5 19.6875 C-1.78837241 20.59512231 1.40467002 22.19927204 5.2109375 25.07421875 C6.96276971 26.17561937 6.96276971 26.17561937 9.0078125 25.87109375 C12.18619897 24.48132868 13.97755274 21.97581435 16.21875 19.3984375 C18 18 18 18 20.09765625 18.16015625 C22 19 22 19 23.9375 21.0625 C25.83205205 23.28528144 25.83205205 23.28528144 28.5 23 C31 23 31 23 33.375 24.625 C35 27 35 27 34.75 30.25 C34.37875 31.61125 34.37875 31.61125 34 33 C30.535 33.495 30.535 33.495 27 34 C24.45635271 31.01397927 23.66949191 28.82566805 23 25 C22.00916033 22.76591887 22.00916033 22.76591887 21 21 C17.49503731 22.94720149 14.50032784 24.82650697 12 28 C12.43482846 31.28926692 13.92165659 33.86860563 15.5 36.75 C17.84271476 41.30040273 18.71738219 44.91287944 19 50 C23.95 50 28.9 50 34 50 C34 53.63 34 57.26 34 61 C35.32 61.66 36.64 62.32 38 63 C38 64.98 38 66.96 38 69 C35.75804887 70.36118461 34.52173238 71.06138028 31.875 70.75 C30 70 30 70 28 68 C27.6875 65.5625 27.6875 65.5625 28 63 C28.474375 62.566875 28.94875 62.13375 29.4375 61.6875 C32.00914674 58.91012153 31.6969156 55.69762964 32 52 C27.71 52 23.42 52 19 52 C18.9175 52.94875 18.835 53.8975 18.75 54.875 C17.95732861 60.49262766 16.05709686 66.94290314 12 71 C12.25076955 74.85052606 14.36611645 76.68201567 17.0625 79.25 C17.79597656 79.95640625 18.52945313 80.6628125 19.28515625 81.390625 C20.13400391 82.18726562 20.13400391 82.18726562 21 83 C19.1875 86.8359375 19.1875 86.8359375 17.5 88.3125 C15.25459795 90.83857731 14.87792867 93.78092823 14 97 C12 99 12 99 9.5625 99.375 C7 99 7 99 5.125 97.25 C4 95 4 95 4.0625 92.9375 C5.30043597 90.37909899 6.55029344 89.42899549 9 88 C10.2684375 87.7834375 10.2684375 87.7834375 11.5625 87.5625 C14.17068378 87.21028015 14.17068378 87.21028015 15.8125 84.9375 C16.204375 84.298125 16.59625 83.65875 17 83 C15.93283928 81.79794536 14.84561663 80.61367667 13.75 79.4375 C13.14671875 78.77621094 12.5434375 78.11492187 11.921875 77.43359375 C10.12977796 75.76783359 10.12977796 75.76783359 7.99609375 76.16015625 C6.0113474 76.99522565 4.1825113 77.93366232 2.3125 79 C-2.04419961 81.26449923 -6.14121492 81.77505625 -11 82 C-10.98839844 83.07121094 -10.97679687 84.14242187 -10.96484375 85.24609375 C-10.95546701 86.64322743 -10.94636669 88.04036299 -10.9375 89.4375 C-10.92912109 90.14455078 -10.92074219 90.85160156 -10.91210938 91.58007812 C-10.90346412 93.38693559 -10.94779989 95.19387603 -11 97 C-12.98983893 98.98983893 -16.85542617 98.37391574 -19.5546875 98.5234375 C-22.39271107 99.07653475 -23.05870961 99.97071911 -25 102 C-28.1875 101.6875 -28.1875 101.6875 -31 101 C-31.495 97.535 -31.495 97.535 -32 94 C-29 92 -29 92 -25.8125 92.375 C-24.884375 92.58125 -23.95625 92.7875 -23 93 C-22.67 93.99 -22.34 94.98 -22 96 C-19.36 96 -16.72 96 -14 96 C-14 91.71 -14 87.42 -14 83 C-15.65 82.773125 -17.3 82.54625 -19 82.3125 C-23.99609721 81.44445222 -27.28060769 79.94569935 -31.24609375 76.828125 C-33.00643002 75.75348081 -33.00643002 75.75348081 -34.98828125 76.6328125 C-37.1756844 78.11939716 -38.91618603 79.72065472 -40.75 81.625 C-41.36359375 82.25664063 -41.9771875 82.88828125 -42.609375 83.5390625 C-43.06828125 84.02117187 -43.5271875 84.50328125 -44 85 C-47.8359375 83.1953125 -47.8359375 83.1953125 -49.3125 81.4375 C-51.88500861 79.24610378 -54.71629543 79.41792604 -58 79 C-60 77 -60 77 -60.25 74 C-60 71 -60 71 -58 69 C-54.375 69.375 -54.375 69.375 -51 70 C-50.938125 71.0725 -50.87625 72.145 -50.8125 73.25 C-50.33854041 77.13531961 -50.33854041 77.13531961 -47.4375 79.4375 C-46.633125 79.953125 -45.82875 80.46875 -45 81 C-42.36 78.36 -39.72 75.72 -37 73 C-37.42152344 72.31035156 -37.84304687 71.62070313 -38.27734375 70.91015625 C-41.86934266 64.74882165 -43.76584191 60.14182188 -44 53 C-45.07121094 53.01160156 -46.14242187 53.02320313 -47.24609375 53.03515625 C-48.64322743 53.04453299 -50.04036299 53.05363331 -51.4375 53.0625 C-52.14455078 53.07087891 -52.85160156 53.07925781 -53.58007812 53.08789062 C-55.38693559 53.09653588 -57.19387603 53.05220011 -59 53 C-60 52 -60 52 -60.09765625 49.71484375 C-60.08605469 48.79832031 -60.07445312 47.88179687 -60.0625 46.9375 C-60.05347656 46.01839844 -60.04445313 45.09929688 -60.03515625 44.15234375 C-60.01775391 43.08693359 -60.01775391 43.08693359 -60 42 C-60.99 41.67 -61.98 41.34 -63 41 C-63.33 38.69 -63.66 36.38 -64 34 C-61 32 -61 32 -57.875 32.3125 C-55 33 -55 33 -54 34 C-53.95919217 35.99958364 -53.95745644 38.00045254 -54 40 C-55.32 40.66 -56.64 41.32 -58 42 C-58 44.64 -58 47.28 -58 50 C-53.71 50 -49.42 50 -45 50 C-44.773125 48.35 -44.54625 46.7 -44.3125 45 C-43.44482418 40.04276389 -41.97230925 36.7272653 -38.92578125 32.75390625 C-37.82255439 31.03388532 -37.82255439 31.03388532 -38.12890625 28.99609375 C-39.51731743 25.81457756 -42.02252717 24.02388942 -44.6015625 21.78125 C-46 20 -46 20 -45.83203125 17.89453125 C-45 16 -45 16 -43.0625 14.1875 C-40.40370372 11.36756455 -39.91148273 8.71604497 -39 5 C-38.67 4.67 -38.34 4.34 -38 4 C-31.28 4.72 -31.28 4.72 -30 6 C-29.71731425 8.68551458 -29.60176688 10.36751211 -31.0625 12.6875 C-33 14 -33 14 -36.5625 14.9375 C-37.696875 15.288125 -38.83125 15.63875 -40 16 C-40.66 17.32 -41.32 18.64 -42 20 C-39.69 22.31 -37.38 24.62 -35 27 C-34.0821875 26.4946875 -33.164375 25.989375 -32.21875 25.46875 C-30.97962365 24.81163754 -29.74001396 24.15543595 -28.5 23.5 C-27.59894531 22.99919922 -27.59894531 22.99919922 -26.6796875 22.48828125 C-26.07382812 22.17246094 -25.46796875 21.85664063 -24.84375 21.53125 C-24.29912109 21.23798828 -23.75449219 20.94472656 -23.19335938 20.64257812 C-21 20 -21 20 -13 20 C-13 14.72 -13 9.44 -13 4 C-10.49348958 3.83723958 -7.98697917 3.67447917 -5.48046875 3.51171875 C-2.63366639 2.92442567 -1.94587408 2.0456625 0 0 Z M-35 33 C-39.97197849 39.68797107 -41.88781127 45.58380204 -41.453125 53.921875 C-40.20673956 62.38870024 -35.81537533 69.34826153 -29.01171875 74.5078125 C-22.06027934 79.08974055 -15.23116483 79.77339804 -7 79 C0.19541887 77.26641577 5.52713547 73.90037449 10 68 C14.71855169 60.1741094 15.8945626 53.12245815 15 44 C12.82987538 36.64794231 8.3520003 31.23466687 2 27 C1.34 27 0.68 27 0 27 C0 26.34 0 25.68 0 25 C-12.74951368 20.36381321 -25.90418294 22.60478051 -35 33 Z " fill="#1B274F" transform="translate(70,6)"/>
<path d="M0 0 C0.495 0.99 0.495 0.99 1 2 C-0.32 2 -1.64 2 -3 2 C-1.515 4.97 -1.515 4.97 0 8 C1.65 7.67 3.3 7.34 5 7 C4.505 5.515 4.505 5.515 4 4 C8.13689266 5.37896422 8.99217938 7.43708343 10.98046875 11.19140625 C13.03336825 16.84671178 13.14042254 23.41026087 11.3125 29.1640625 C10.5 30.8125 10.5 30.8125 9 33 C7.71403404 30.42806809 8.25588873 29.70480426 9.0625 27 C10.33421097 21.73392168 9.7386997 17.10984523 8 12 C7.34 11.34 6.68 10.68 6 10 C3.77871445 9.97691403 3.77871445 9.97691403 1.375 10.375 C0.55773437 10.48585938 -0.25953125 10.59671875 -1.1015625 10.7109375 C-1.72804687 10.80632813 -2.35453125 10.90171875 -3 11 C-3.061875 10.113125 -3.12375 9.22625 -3.1875 8.3125 C-4.18171055 4.25918008 -5.90101124 2.70168251 -9 0 C-9.33 3.63 -9.66 7.26 -10 11 C-8.02 11 -6.04 11 -4 11 C-4 11.33 -4 11.66 -4 12 C-5.98 12 -7.96 12 -10 12 C-10 14.97 -10 17.94 -10 21 C-7.03 21 -4.06 21 -1 21 C-1 21.33 -1 21.66 -1 22 C-3.97 22 -6.94 22 -10 22 C-10 24.97 -10 27.94 -10 31 C-7.03 31 -4.06 31 -1 31 C-5.17908064 33.08954032 -5.80410573 33.16552619 -10 32 C-10 35.3 -10 38.6 -10 42 C-8.35 41.34 -6.7 40.68 -5 40 C-5 40.66 -5 41.32 -5 42 C-3.02 41.505 -3.02 41.505 -1 41 C-1.495 41.99 -1.495 41.99 -2 43 C-5.30335066 44.10111689 -7.89832137 44.20226528 -11.375 44.25 C-12.49648438 44.27578125 -13.61796875 44.3015625 -14.7734375 44.328125 C-18.29106057 43.97040062 -20.14765975 43.02975523 -23 41 C-22.360625 40.87625 -21.72125 40.7525 -21.0625 40.625 C-20.381875 40.41875 -19.70125 40.2125 -19 40 C-18.67 39.34 -18.34 38.68 -18 38 C-16.35 39.32 -14.7 40.64 -13 42 C-12.67 38.7 -12.34 35.4 -12 32 C-14.31 32 -16.62 32 -19 32 C-19 31.67 -19 31.34 -19 31 C-16.69 31 -14.38 31 -12 31 C-12 28.03 -12 25.06 -12 22 C-15.3 22 -18.6 22 -22 22 C-22 25.3 -22 28.6 -22 32 C-24.4294516 28.3558226 -24.16179575 26.28758728 -24 22 C-26.97 22 -29.94 22 -33 22 C-33.33 22.66 -33.66 23.32 -34 24 C-34.78857574 17.00504116 -33.97004594 12.64349059 -29.71484375 6.9765625 C-22.02277147 -1.8894707 -11.06581839 -5.24170345 0 0 Z " fill="#1C2850" transform="translate(68,36)"/>
<path d="M0 0 C5.43556925 3.26134155 7.05780828 5.17342485 9 11 C11.64 10.67 14.28 10.34 17 10 C20.80154367 14.79325072 21.23536848 20.07023291 21 26 C19.91044826 31.92398663 18.48360509 37.438028 13.5625 41.25 C10.20826969 42.89769208 8.62559228 43.51794175 5 43 C4.34 43 3.68 43 3 43 C2.01 43 1.02 43 0 43 C0 39.7 0 36.4 0 33 C2.31 33 4.62 33 7 33 C4.69 32.67 2.38 32.34 0 32 C0 21.44 0 10.88 0 0 Z " fill="#3A4467" transform="translate(58,35)"/>
<path d="M0 0 C2.97 0 5.94 0 9 0 C9.33 2.31 9.66 4.62 10 7 C10.33 4.69 10.66 2.38 11 0 C14.3 0 17.6 0 21 0 C21 6.93 21 13.86 21 21 C19.35 20.01 17.7 19.02 16 18 C15.67 18.33 15.34 18.66 15 19 C11.10066414 19.07798672 9.04847626 18.90139542 6.05078125 16.32421875 C3.00059654 12.92873011 -0.01582536 9.5518077 -1 5 C-0.625 2.1875 -0.625 2.1875 0 0 Z " fill="#1C2850" transform="translate(35,58)"/>
<path d="M0 0 C0 7 0 14 0 21 C-1.81242052 21.02687279 -3.62495233 21.04633715 -5.4375 21.0625 C-6.44683594 21.07410156 -7.45617187 21.08570312 -8.49609375 21.09765625 C-11 21 -11 21 -12 20 C-14.67058851 19.85884839 -17.32432238 19.95752893 -20 20 C-20.32469403 15.34605219 -19.79790518 12.76641082 -17 9 C-16.34 8.67 -15.68 8.34 -15 8 C-14.7525 7.38125 -14.505 6.7625 -14.25 6.125 C-12.47940018 3.1149803 -10.13379754 2.36252067 -7 1 C-7 1.66 -7 2.32 -7 3 C-6.401875 2.505 -5.80375 2.01 -5.1875 1.5 C-3 0 -3 0 0 0 Z " fill="#4C5574" transform="translate(56,36)"/>
<path d="M0 0 C2.31 0 4.62 0 7 0 C7 0.33 7 0.66 7 1 C5.02 1 3.04 1 1 1 C1 3.97 1 6.94 1 10 C3.97 10 6.94 10 10 10 C10 10.33 10 10.66 10 11 C7.03 11 4.06 11 1 11 C1 13.97 1 16.94 1 20 C3.97 20 6.94 20 10 20 C5.82091936 22.08954032 5.19589427 22.16552619 1 21 C1 24.3 1 27.6 1 31 C2.65 30.34 4.3 29.68 6 29 C6 29.66 6 30.32 6 31 C7.32 30.67 8.64 30.34 10 30 C9.67 30.66 9.34 31.32 9 32 C5.69664934 33.10111689 3.10167863 33.20226528 -0.375 33.25 C-1.49648438 33.27578125 -2.61796875 33.3015625 -3.7734375 33.328125 C-7.29106057 32.97040062 -9.14765975 32.02975523 -12 30 C-11.360625 29.87625 -10.72125 29.7525 -10.0625 29.625 C-9.381875 29.41875 -8.70125 29.2125 -8 29 C-7.67 28.34 -7.34 27.68 -7 27 C-4.525 28.98 -4.525 28.98 -2 31 C-1.67 27.7 -1.34 24.4 -1 21 C-3.31 21 -5.62 21 -8 21 C-8 20.67 -8 20.34 -8 20 C-5.69 20 -3.38 20 -1 20 C-1 17.03 -1 14.06 -1 11 C-4.3 11 -7.6 11 -11 11 C-11 14.3 -11 17.6 -11 21 C-13.67927341 16.98108988 -13.15601248 14.75838077 -13 10 C-7.06 9.505 -7.06 9.505 -1 9 C-0.67 6.03 -0.34 3.06 0 0 Z " fill="#101D46" transform="translate(57,47)"/>
<path d="M0 0 C0.33 0 0.66 0 1 0 C1 1.65 1 3.3 1 5 C3.64 5.33 6.28 5.66 9 6 C8.08351749 9.66593006 6.83103806 11.42053938 3.6875 13.375 C0.39250138 15.09086027 -1.39972136 15.07035311 -5 14 C-6.32 14.33 -7.64 14.66 -9 15 C-9 11.7 -9 8.4 -9 5 C-6.03 5 -3.06 5 0 5 C0 3.35 0 1.7 0 0 Z " fill="#212D53" transform="translate(67,63)"/>
<path d="M0 0 C0.33 0 0.66 0 1 0 C1 4.62 1 9.24 1 14 C-1.50651042 14.16276042 -4.01302083 14.32552083 -6.51953125 14.48828125 C-9.36750728 15.07581646 -10.04847296 15.95976718 -12 18 C-15.1875 17.6875 -15.1875 17.6875 -18 17 C-18.33 14.69 -18.66 12.38 -19 10 C-16 8 -16 8 -12.8125 8.375 C-11.884375 8.58125 -10.95625 8.7875 -10 9 C-9.67 9.99 -9.34 10.98 -9 12 C-6.03 12 -3.06 12 0 12 C0 8.04 0 4.08 0 0 Z " fill="#0B1842" transform="translate(57,90)"/>
<path d="M0 0 C2.46770934 0.42546713 3.71199641 0.68695262 5.4375 2.5625 C6.94532634 4.28421498 6.94532634 4.28421498 9.4375 3.9375 C12 4 12 4 14.375 5.625 C16 8 16 8 15.75 11.25 C15.5025 12.1575 15.255 13.065 15 14 C12.69 14.33 10.38 14.66 8 15 C5.45635271 12.01397927 4.66949191 9.82566805 4 6 C3.00916033 3.76591887 3.00916033 3.76591887 2 2 C1.34 2 0.68 2 0 2 C0 1.34 0 0.68 0 0 Z " fill="#29345A" transform="translate(89,25)"/>
<path d="M0 0 C6.72 0.72 6.72 0.72 8 2 C8.28268575 4.68551458 8.39823312 6.36751211 6.9375 8.6875 C5 10 5 10 1.5625 10.9375 C-2.13989712 12.0417237 -3.56981585 13.08377902 -6 16 C-6.66 15.67 -7.32 15.34 -8 15 C-7.0360896 12.84973834 -6.28912076 11.25298067 -4.5 9.6875 C-2.24527729 7.15093695 -1.83926644 4.23717056 -1 1 C-0.67 0.67 -0.34 0.34 0 0 Z " fill="#384265" transform="translate(32,10)"/>
<path d="M0 0 C2.97 0 5.94 0 9 0 C7.25 8.625 7.25 8.625 5 12 C3.02 11.34 1.04 10.68 -1 10 C-1.125 3.375 -1.125 3.375 0 0 Z " fill="#EDEDF1" transform="translate(70,58)"/>
<path d="M0 0 C3.3 0 6.6 0 10 0 C10 2.97 10 5.94 10 9 C3.06640625 9.09765625 3.06640625 9.09765625 1 9 C0 8 0 8 -0.09765625 6.15234375 C-0.06510417 4.1015625 -0.03255208 2.05078125 0 0 Z " fill="#F9F9FA" transform="translate(46,58)"/>
<path d="M0 0 C3.3 0 6.6 0 10 0 C9.67 2.97 9.34 5.94 9 9 C6.03 9 3.06 9 0 9 C0 6.03 0 3.06 0 0 Z " fill="#F9F9FA" transform="translate(58,58)"/>
<path d="M0 0 C2.64 0 5.28 0 8 0 C8.33 3.3 8.66 6.6 9 10 C7.02 10.66 5.04 11.32 3 12 C-0.42857143 4.71428571 -0.42857143 4.71428571 0 0 Z " fill="#F5F6F7" transform="translate(36,58)"/>
<path d="M0 0 C3.80984844 2.77079887 4.06840752 6.62868145 5 11 C2.03 11 -0.94 11 -4 11 C-4.33 8.03 -4.66 5.06 -5 2 C-3.35 1.34 -1.7 0.68 0 0 Z " fill="#F9F9FA" transform="translate(74,45)"/>
<path d="M0 0 C2.97 0 5.94 0 9 0 C10.35439668 2.70879335 10.06501451 5.00933268 10 8 C6.7 8 3.4 8 0 8 C0 5.36 0 2.72 0 0 Z " fill="#F9F9FA" transform="translate(58,48)"/>
<path d="M0 0 C0.721875 0.00257812 1.44375 0.00515625 2.1875 0.0078125 C2.909375 0.00523438 3.63125 0.00265625 4.375 0 C6.1875 0.1328125 6.1875 0.1328125 7.1875 1.1328125 C7.22842937 3.46578683 7.22991723 5.79986475 7.1875 8.1328125 C3.8875 8.1328125 0.5875 8.1328125 -2.8125 8.1328125 C-2.85491723 5.79986475 -2.85342937 3.46578683 -2.8125 1.1328125 C-1.8125 0.1328125 -1.8125 0.1328125 0 0 Z " fill="#FBFBFC" transform="translate(48.8125,47.8671875)"/>
<path d="M0 0 C2.86724686 0.57344937 3.8614515 0.8614515 6 3 C5.96712417 5.72869407 5.43602229 8.2966618 5 11 C2.36 11 -0.28 11 -3 11 C-3.32613618 6.32538149 -2.70582788 3.83325617 0 0 Z " fill="#F3F4F6" transform="translate(39,45)"/>
<path d="M0 0 C3.625 0.375 3.625 0.375 7 1 C7.33 1.99 7.66 2.98 8 4 C7.34 4 6.68 4 6 4 C5.34 5.32 4.68 6.64 4 8 C3.34 8 2.68 8 2 8 C2 8.66 2 9.32 2 10 C0.68 9.34 -0.64 8.68 -2 8 C-2.125 5.125 -2.125 5.125 -2 2 C-1.34 1.34 -0.68 0.68 0 0 Z " fill="#283358" transform="translate(12,75)"/>
<path d="M0 0 C5.87412587 3.52447552 5.87412587 3.52447552 8 8 C8 8.99 8 9.98 8 11 C5.36 11.33 2.72 11.66 0 12 C0 8.04 0 4.08 0 0 Z " fill="#F3F3F5" transform="translate(58,35)"/>
<path d="M0 0 C0.99 0 1.98 0 3 0 C3 3.63 3 7.26 3 11 C0.36 10.67 -2.28 10.34 -5 10 C-4.49942848 5.61999924 -3.06806466 3.15830185 0 0 Z " fill="#FAFAFB" transform="translate(53,36)"/>
<path d="M0 0 C0 3.63 0 7.26 0 11 C-3.50714051 9.10424837 -5.94461059 7.46170848 -8 4 C-8 3.01 -8 2.02 -8 1 C-5 0 -5 0 0 0 Z " fill="#F0F1F3" transform="translate(56,68)"/>
<path d="M0 0 C0.99 0.66 1.98 1.32 3 2 C3.1875 5.125 3.1875 5.125 3 8 C0.64561267 9.42944945 -0.48032433 10.08661261 -3.25 9.625 C-3.8275 9.41875 -4.405 9.2125 -5 9 C-5 6.66666667 -5 4.33333333 -5 2 C-3.35 2 -1.7 2 0 2 C0 1.34 0 0.68 0 0 Z " fill="#1D2951" transform="translate(105,67)"/>
<path d="M0 0 C0.33 0 0.66 0 1 0 C1.33 2.97 1.66 5.94 2 9 C3.65 8.67 5.3 8.34 7 8 C7 8.66 7 9.32 7 10 C8.32 9.67 9.64 9.34 11 9 C10.67 9.66 10.34 10.32 10 11 C6.69664934 12.10111689 4.10167863 12.20226528 0.625 12.25 C-0.49648438 12.27578125 -1.61796875 12.3015625 -2.7734375 12.328125 C-6.29106057 11.97040062 -8.14765975 11.02975523 -11 9 C-10.360625 8.87625 -9.72125 8.7525 -9.0625 8.625 C-8.381875 8.41875 -7.70125 8.2125 -7 8 C-6.67 7.34 -6.34 6.68 -6 6 C-3.525 7.98 -3.525 7.98 -1 10 C-0.67 6.7 -0.34 3.4 0 0 Z " fill="#1E2A51" transform="translate(56,68)"/>
<path d="M0 0 C2.64 0.33 5.28 0.66 8 1 C5.25 7.75 5.25 7.75 3 10 C2.01 10 1.02 10 0 10 C0 6.7 0 3.4 0 0 Z " fill="#EAEBEF" transform="translate(58,68)"/>
<path d="M0 0 C3.3125 0.125 3.3125 0.125 7 1 C8.9375 4.0625 8.9375 4.0625 10 7 C8.02 7.33 6.04 7.66 4 8 C2.68 5.36 1.36 2.72 0 0 Z " fill="#D3D5DD" transform="translate(64,37)"/>
<path d="M0 0 C6.72 0.72 6.72 0.72 8 2 C8.04063832 3.66617115 8.042721 5.33388095 8 7 C6.02 7.99 6.02 7.99 4 9 C4.33 7.35 4.66 5.7 5 4 C2.525 3.01 2.525 3.01 0 2 C-0.66 3.32 -1.32 4.64 -2 6 C-1.125 1.125 -1.125 1.125 0 0 Z " fill="#18244C" transform="translate(32,10)"/>
<path d="M0 0 C2.475 0.99 2.475 0.99 5 2 C1.67692308 6.8 1.67692308 6.8 -1.75 7.8125 C-2.4925 7.874375 -3.235 7.93625 -4 8 C-2.68 5.36 -1.36 2.72 0 0 Z " fill="#E2E3E8" transform="translate(68,69)"/>
<path d="M0 0 C0.33 0 0.66 0 1 0 C1.04254356 1.99954746 1.04080783 4.00041636 1 6 C0 7 0 7 -2.06640625 7.09765625 C-2.89011719 7.08605469 -3.71382812 7.07445312 -4.5625 7.0625 C-5.38878906 7.05347656 -6.21507812 7.04445313 -7.06640625 7.03515625 C-7.70449219 7.02355469 -8.34257813 7.01195312 -9 7 C-9.33 7.66 -9.66 8.32 -10 9 C-10 6.69 -10 4.38 -10 2 C-9.34 1.67 -8.68 1.34 -8 1 C-8 2.32 -8 3.64 -8 5 C-5.36 5 -2.72 5 0 5 C0 3.35 0 1.7 0 0 Z " fill="#263157" transform="translate(44,51)"/>
<path d="M0 0 C1.65 0.33 3.3 0.66 5 1 C4.67 2.65 4.34 4.3 4 6 C2.35 5.67 0.7 5.34 -1 5 C-0.67 3.35 -0.34 1.7 0 0 Z " fill="#DDDFE5" transform="translate(70,8)"/>
<path d="M0 0 C1.67542976 0.28604898 3.34385343 0.61781233 5 1 C4.67 2.65 4.34 4.3 4 6 C2.68 6 1.36 6 0 6 C-0.38218767 4.34385343 -0.71395102 2.67542976 -1 1 C-0.67 0.67 -0.34 0.34 0 0 Z " fill="#E0E2E7" transform="translate(9,40)"/>
<path d="M0 0 C0.33 0.66 0.66 1.32 1 2 C-0.98 4.97 -0.98 4.97 -3 8 C-4.32 7.67 -5.64 7.34 -7 7 C-5.54744301 3.17053157 -3.57104439 1.87949705 0 0 Z " fill="#E2E4E9" transform="translate(48,37)"/>
<path d="M0 0 C2.0625 0.4375 2.0625 0.4375 4 1 C3.67 2.65 3.34 4.3 3 6 C1.35 5.67 -0.3 5.34 -2 5 C-1.125 1.125 -1.125 1.125 0 0 Z " fill="#E1E3E8" transform="translate(42,100)"/>
<path d="M0 0 C3.14605485 1.43002493 3.75452774 3.86376518 5.0625 6.9375 C1.38829134 6.63131595 0.28114487 6.17978216 -2.25 3.375 C-2.806875 2.570625 -3.36375 1.76625 -3.9375 0.9375 C-1.9375 -0.0625 -1.9375 -0.0625 0 0 Z " fill="#D3D6DD" transform="translate(44.9375,70.0625)"/>
<path d="M0 0 C2.475 0.99 2.475 0.99 5 2 C4.01 2.33 3.02 2.66 2 3 C2.66 4.65 3.32 6.3 4 8 C3.01 8 2.02 8 1 8 C0.67 7.01 0.34 6.02 0 5 C-1.65 4.67 -3.3 4.34 -5 4 C-4.34 3.34 -3.68 2.68 -3 2 C-2.01 2 -1.02 2 0 2 C0 1.34 0 0.68 0 0 Z " fill="#2F3A5E" transform="translate(46,66)"/>
<path d="M0 0 C2.0625 0.4375 2.0625 0.4375 4 1 C4 2.32 4 3.64 4 5 C2.68 5.33 1.36 5.66 0 6 C-0.38218767 4.34385343 -0.71395102 2.67542976 -1 1 C-0.67 0.67 -0.34 0.34 0 0 Z " fill="#EDEEF1" transform="translate(98,32)"/>
<path d="M0 0 C2.475 0.495 2.475 0.495 5 1 C4.67 2.65 4.34 4.3 4 6 C2.68 5.67 1.36 5.34 0 5 C0 3.35 0 1.7 0 0 Z " fill="#ECEDF0" transform="translate(77,97)"/>
<path d="M0 0 C1.65 0 3.3 0 5 0 C5.33 1.32 5.66 2.64 6 4 C4.35 4.33 2.7 4.66 1 5 C0.67 3.35 0.34 1.7 0 0 Z " fill="#F5F6F7" transform="translate(100,69)"/>
<path d="M0 0 C0.4125 0.515625 0.825 1.03125 1.25 1.5625 C2.89081865 3.25326429 2.89081865 3.25326429 5.0625 2.8125 C7.18712526 2.06529664 7.18712526 2.06529664 9 0 C9 1.65 9 3.3 9 5 C5.625 5.625 5.625 5.625 2 6 C1.34 5.34 0.68 4.68 0 4 C0 2.68 0 1.36 0 0 Z " fill="#142049" transform="translate(95,34)"/>
<path d="M0 0 C2.475 0.495 2.475 0.495 5 1 C5 2.32 5 3.64 5 5 C3.35 5 1.7 5 0 5 C0 3.35 0 1.7 0 0 Z " fill="#F0F1F3" transform="translate(32,12)"/>
<path d="M0 0 C2.475 0.495 2.475 0.495 5 1 C5 2.32 5 3.64 5 5 C3.35 5 1.7 5 0 5 C0 3.35 0 1.7 0 0 Z " fill="#F7F7F8" transform="translate(12,77)"/>
<path d="M0 0 C2 1 2 1 3.375 4.4375 C4.63566608 8.03852123 4.63566608 8.03852123 7.1875 9.4375 C7.785625 9.623125 8.38375 9.80875 9 10 C6.69 10.33 4.38 10.66 2 11 C1.855625 10.113125 1.71125 9.22625 1.5625 8.3125 C1.08980022 5.52882354 0.56929815 2.76516243 0 0 Z " fill="#283359" transform="translate(63,36)"/>
<path d="M0 0 C0.33 0.66 0.66 1.32 1 2 C2.32 1.67 3.64 1.34 5 1 C4.67 1.66 4.34 2.32 4 3 C0.52674819 4.1577506 -2.36067448 4.06866652 -6 4 C-4.60804085 1.2160817 -2.84424221 1.02101003 0 0 Z " fill="#0D1944" transform="translate(62,76)"/>
<path d="M0 0 C0.66 2.64 1.32 5.28 2 8 C0.0625 7.3125 0.0625 7.3125 -2 6 C-2.75 3.375 -2.75 3.375 -3 1 C-1 0 -1 0 0 0 Z " fill="#29345A" transform="translate(77,97)"/>
<path d="M0 0 C1.27875 0.103125 2.5575 0.20625 3.875 0.3125 C4.95394531 0.39951172 4.95394531 0.39951172 6.0546875 0.48828125 C8 1 8 1 10 4 C8.02 3.34 6.04 2.68 4 2 C3.67 2.66 3.34 3.32 3 4 C2.01 3.34 1.02 2.68 0 2 C0 1.34 0 0.68 0 0 Z " fill="#0D1A44" transform="translate(59,34)"/>
<path d="M0 0 C2.4375 0.625 2.4375 0.625 5 2 C5.8125 5.125 5.8125 5.125 6 8 C5.67 7.01 5.34 6.02 5 5 C4.34 4.67 3.68 4.34 3 4 C1 3 1 3 0 0 Z " fill="#313C60" transform="translate(99,29)"/>
<path d="M0 0 C1.67542976 0.28604898 3.34385343 0.61781233 5 1 C5.33 2.32 5.66 3.64 6 5 C5.01 5.495 5.01 5.495 4 6 C3.67 5.01 3.34 4.02 3 3 C0.99983534 1.79117904 0.99983534 1.79117904 -1 1 C-0.67 0.67 -0.34 0.34 0 0 Z " fill="#0B1842" transform="translate(10,38)"/>
</svg>
