<?xml version="1.0" encoding="UTF-8"?>
<svg version="1.1" xmlns="http://www.w3.org/2000/svg" width="562" height="180">
<path d="M0 0 C185.46 0 370.92 0 562 0 C562 59.4 562 118.8 562 180 C376.54 180 191.08 180 0 180 C0 120.6 0 61.2 0 0 Z " fill="#FDFDFE" transform="translate(0,0)"/>
<path d="M0 0 C5.43478261 0.43478261 5.43478261 0.43478261 7 2 C6.28 8.72 6.28 8.72 5 10 C1.5 9.6875 1.5 9.6875 -2 9 C-2.495 8.01 -2.495 8.01 -3 7 C-4.89533342 6.53476937 -4.89533342 6.53476937 -7.0625 6.375 C-8.361875 6.25125 -9.66125 6.1275 -11 6 C-11 10.29 -11 14.58 -11 19 C-9.515 19.226875 -8.03 19.45375 -6.5 19.6875 C-1.78837241 20.59512231 1.40467002 22.19927204 5.2109375 25.07421875 C6.96276971 26.17561937 6.96276971 26.17561937 9.0078125 25.87109375 C12.18619897 24.48132868 13.97755274 21.97581435 16.21875 19.3984375 C18 18 18 18 20.09765625 18.16015625 C22 19 22 19 23.9375 21.0625 C25.83205205 23.28528144 25.83205205 23.28528144 28.5 23 C31 23 31 23 33.375 24.625 C35 27 35 27 34.75 30.25 C34.37875 31.61125 34.37875 31.61125 34 33 C30.535 33.495 30.535 33.495 27 34 C24.45635271 31.01397927 23.66949191 28.82566805 23 25 C22.00916033 22.76591887 22.00916033 22.76591887 21 21 C17.49503731 22.94720149 14.50032784 24.82650697 12 28 C12.43482846 31.28926692 13.92165659 33.86860563 15.5 36.75 C17.84271476 41.30040273 18.71738219 44.91287944 19 50 C23.95 50 28.9 50 34 50 C34 53.63 34 57.26 34 61 C35.32 61.66 36.64 62.32 38 63 C38 64.98 38 66.96 38 69 C35.75804887 70.36118461 34.52173238 71.06138028 31.875 70.75 C30 70 30 70 28 68 C27.6875 65.5625 27.6875 65.5625 28 63 C28.474375 62.566875 28.94875 62.13375 29.4375 61.6875 C32.00914674 58.91012153 31.6969156 55.69762964 32 52 C27.71 52 23.42 52 19 52 C18.9175 52.94875 18.835 53.8975 18.75 54.875 C17.95732861 60.49262766 16.05709686 66.94290314 12 71 C12.25076955 74.85052606 14.36611645 76.68201567 17.0625 79.25 C17.79597656 79.95640625 18.52945313 80.6628125 19.28515625 81.390625 C20.13400391 82.18726562 20.13400391 82.18726562 21 83 C19.1875 86.8359375 19.1875 86.8359375 17.5 88.3125 C15.25459795 90.83857731 14.87792867 93.78092823 14 97 C12 99 12 99 9.5625 99.375 C7 99 7 99 5.125 97.25 C4 95 4 95 4.0625 92.9375 C5.30043597 90.37909899 6.55029344 89.42899549 9 88 C10.2684375 87.7834375 10.2684375 87.7834375 11.5625 87.5625 C14.17068378 87.21028015 14.17068378 87.21028015 15.8125 84.9375 C16.204375 84.298125 16.59625 83.65875 17 83 C15.93283928 81.79794536 14.84561663 80.61367667 13.75 79.4375 C13.14671875 78.77621094 12.5434375 78.11492187 11.921875 77.43359375 C10.12977796 75.76783359 10.12977796 75.76783359 7.99609375 76.16015625 C6.0113474 76.99522565 4.1825113 77.93366232 2.3125 79 C-2.04419961 81.26449923 -6.14121492 81.77505625 -11 82 C-10.98839844 83.07121094 -10.97679687 84.14242187 -10.96484375 85.24609375 C-10.95546701 86.64322743 -10.94636669 88.04036299 -10.9375 89.4375 C-10.92912109 90.14455078 -10.92074219 90.85160156 -10.91210938 91.58007812 C-10.90346412 93.38693559 -10.94779989 95.19387603 -11 97 C-13.00173267 99.00173267 -16.93706892 98.37497643 -19.65234375 98.5234375 C-22.36744646 98.78734527 -22.36744646 98.78734527 -24 102 C-27 102.375 -27 102.375 -30 102 C-32.1387261 98.79191085 -32.47730962 97.72301503 -32 94 C-29 92 -29 92 -25.8125 92.375 C-24.884375 92.58125 -23.95625 92.7875 -23 93 C-22.67 93.99 -22.34 94.98 -22 96 C-19.36 96 -16.72 96 -14 96 C-14 91.71 -14 87.42 -14 83 C-15.65 82.773125 -17.3 82.54625 -19 82.3125 C-23.99609721 81.44445222 -27.28060769 79.94569935 -31.24609375 76.828125 C-33.00643002 75.75348081 -33.00643002 75.75348081 -34.98828125 76.6328125 C-37.1756844 78.11939716 -38.91618603 79.72065472 -40.75 81.625 C-41.36359375 82.25664063 -41.9771875 82.88828125 -42.609375 83.5390625 C-43.06828125 84.02117187 -43.5271875 84.50328125 -44 85 C-47.8359375 83.1953125 -47.8359375 83.1953125 -49.3125 81.4375 C-51.88500861 79.24610378 -54.71629543 79.41792604 -58 79 C-60 77 -60 77 -60.25 74 C-60 71 -60 71 -58 69 C-54.375 69.375 -54.375 69.375 -51 70 C-50.938125 71.0725 -50.87625 72.145 -50.8125 73.25 C-50.33854041 77.13531961 -50.33854041 77.13531961 -47.4375 79.4375 C-46.633125 79.953125 -45.82875 80.46875 -45 81 C-42.36 78.36 -39.72 75.72 -37 73 C-37.42152344 72.31035156 -37.84304687 71.62070313 -38.27734375 70.91015625 C-41.86934266 64.74882165 -43.76584191 60.14182188 -44 53 C-45.07121094 53.01160156 -46.14242187 53.02320313 -47.24609375 53.03515625 C-48.64322743 53.04453299 -50.04036299 53.05363331 -51.4375 53.0625 C-52.14455078 53.07087891 -52.85160156 53.07925781 -53.58007812 53.08789062 C-55.38693559 53.09653588 -57.19387603 53.05220011 -59 53 C-60 52 -60 52 -60.09765625 49.71484375 C-60.08605469 48.79832031 -60.07445312 47.88179687 -60.0625 46.9375 C-60.05347656 46.01839844 -60.04445312 45.09929687 -60.03515625 44.15234375 C-60.01775391 43.08693359 -60.01775391 43.08693359 -60 42 C-60.99 41.67 -61.98 41.34 -63 41 C-63.33 38.69 -63.66 36.38 -64 34 C-61 32 -61 32 -57.875 32.3125 C-55 33 -55 33 -54 34 C-53.95919217 35.99958364 -53.95745644 38.00045254 -54 40 C-55.32 40.66 -56.64 41.32 -58 42 C-58 44.64 -58 47.28 -58 50 C-53.71 50 -49.42 50 -45 50 C-44.773125 48.35 -44.54625 46.7 -44.3125 45 C-43.44482418 40.04276389 -41.97230925 36.7272653 -38.92578125 32.75390625 C-37.82255439 31.03388532 -37.82255439 31.03388532 -38.12890625 28.99609375 C-39.51731743 25.81457756 -42.02252717 24.02388942 -44.6015625 21.78125 C-46 20 -46 20 -45.83203125 17.89453125 C-45 16 -45 16 -43.0625 14.1875 C-40.40370372 11.36756455 -39.91148273 8.71604497 -39 5 C-38.67 4.67 -38.34 4.34 -38 4 C-31.28 4.72 -31.28 4.72 -30 6 C-29.71731425 8.68551458 -29.60176688 10.36751211 -31.0625 12.6875 C-33 14 -33 14 -36.5625 14.9375 C-37.696875 15.288125 -38.83125 15.63875 -40 16 C-40.66 17.32 -41.32 18.64 -42 20 C-39.69 22.31 -37.38 24.62 -35 27 C-34.0821875 26.4946875 -33.164375 25.989375 -32.21875 25.46875 C-30.97962365 24.81163754 -29.74001396 24.15543595 -28.5 23.5 C-27.59894531 22.99919922 -27.59894531 22.99919922 -26.6796875 22.48828125 C-26.07382813 22.17246094 -25.46796875 21.85664062 -24.84375 21.53125 C-24.29912109 21.23798828 -23.75449219 20.94472656 -23.19335938 20.64257812 C-21 20 -21 20 -13 20 C-13 14.72 -13 9.44 -13 4 C-10.49348958 3.83723958 -7.98697917 3.67447917 -5.48046875 3.51171875 C-2.63366639 2.92442567 -1.94587408 2.0456625 0 0 Z " fill="#F2F3F5" transform="translate(100,42)"/>
<path d="M0 0 C5.43478261 0.43478261 5.43478261 0.43478261 7 2 C6.28 8.72 6.28 8.72 5 10 C1.5 9.6875 1.5 9.6875 -2 9 C-2.495 8.01 -2.495 8.01 -3 7 C-4.89533342 6.53476937 -4.89533342 6.53476937 -7.0625 6.375 C-8.361875 6.25125 -9.66125 6.1275 -11 6 C-11 10.29 -11 14.58 -11 19 C-9.515 19.226875 -8.03 19.45375 -6.5 19.6875 C-1.78837241 20.59512231 1.40467002 22.19927204 5.2109375 25.07421875 C6.96276971 26.17561937 6.96276971 26.17561937 9.0078125 25.87109375 C12.18619897 24.48132868 13.97755274 21.97581435 16.21875 19.3984375 C18 18 18 18 20.09765625 18.16015625 C22 19 22 19 23.9375 21.0625 C25.83205205 23.28528144 25.83205205 23.28528144 28.5 23 C31 23 31 23 33.375 24.625 C35 27 35 27 34.75 30.25 C34.37875 31.61125 34.37875 31.61125 34 33 C30.535 33.495 30.535 33.495 27 34 C24.45635271 31.01397927 23.66949191 28.82566805 23 25 C22.00916033 22.76591887 22.00916033 22.76591887 21 21 C17.49503731 22.94720149 14.50032784 24.82650697 12 28 C12.43482846 31.28926692 13.92165659 33.86860563 15.5 36.75 C17.84271476 41.30040273 18.71738219 44.91287944 19 50 C23.95 50 28.9 50 34 50 C34 53.63 34 57.26 34 61 C35.32 61.66 36.64 62.32 38 63 C38 64.98 38 66.96 38 69 C35.75804887 70.36118461 34.52173238 71.06138028 31.875 70.75 C30 70 30 70 28 68 C27.6875 65.5625 27.6875 65.5625 28 63 C28.474375 62.566875 28.94875 62.13375 29.4375 61.6875 C32.00914674 58.91012153 31.6969156 55.69762964 32 52 C27.71 52 23.42 52 19 52 C18.9175 52.94875 18.835 53.8975 18.75 54.875 C17.95732861 60.49262766 16.05709686 66.94290314 12 71 C12.25076955 74.85052606 14.36611645 76.68201567 17.0625 79.25 C17.79597656 79.95640625 18.52945313 80.6628125 19.28515625 81.390625 C20.13400391 82.18726562 20.13400391 82.18726562 21 83 C19.1875 86.8359375 19.1875 86.8359375 17.5 88.3125 C15.25459795 90.83857731 14.87792867 93.78092823 14 97 C12 99 12 99 9.5625 99.375 C7 99 7 99 5.125 97.25 C4 95 4 95 4.0625 92.9375 C5.30043597 90.37909899 6.55029344 89.42899549 9 88 C10.2684375 87.7834375 10.2684375 87.7834375 11.5625 87.5625 C14.17068378 87.21028015 14.17068378 87.21028015 15.8125 84.9375 C16.204375 84.298125 16.59625 83.65875 17 83 C15.93283928 81.79794536 14.84561663 80.61367667 13.75 79.4375 C13.14671875 78.77621094 12.5434375 78.11492187 11.921875 77.43359375 C10.12977796 75.76783359 10.12977796 75.76783359 7.99609375 76.16015625 C6.0113474 76.99522565 4.1825113 77.93366232 2.3125 79 C-2.04419961 81.26449923 -6.14121492 81.77505625 -11 82 C-10.98839844 83.07121094 -10.97679687 84.14242187 -10.96484375 85.24609375 C-10.95546701 86.64322743 -10.94636669 88.04036299 -10.9375 89.4375 C-10.92912109 90.14455078 -10.92074219 90.85160156 -10.91210938 91.58007812 C-10.90346412 93.38693559 -10.94779989 95.19387603 -11 97 C-13.00173267 99.00173267 -16.93706892 98.37497643 -19.65234375 98.5234375 C-22.36744646 98.78734527 -22.36744646 98.78734527 -24 102 C-27 102.375 -27 102.375 -30 102 C-32.1387261 98.79191085 -32.47730962 97.72301503 -32 94 C-29 92 -29 92 -25.8125 92.375 C-24.884375 92.58125 -23.95625 92.7875 -23 93 C-22.67 93.99 -22.34 94.98 -22 96 C-19.36 96 -16.72 96 -14 96 C-14 91.71 -14 87.42 -14 83 C-15.65 82.773125 -17.3 82.54625 -19 82.3125 C-23.99609721 81.44445222 -27.28060769 79.94569935 -31.24609375 76.828125 C-33.00643002 75.75348081 -33.00643002 75.75348081 -34.98828125 76.6328125 C-37.1756844 78.11939716 -38.91618603 79.72065472 -40.75 81.625 C-41.36359375 82.25664063 -41.9771875 82.88828125 -42.609375 83.5390625 C-43.06828125 84.02117187 -43.5271875 84.50328125 -44 85 C-47.8359375 83.1953125 -47.8359375 83.1953125 -49.3125 81.4375 C-51.88500861 79.24610378 -54.71629543 79.41792604 -58 79 C-60 77 -60 77 -60.25 74 C-60 71 -60 71 -58 69 C-54.375 69.375 -54.375 69.375 -51 70 C-50.938125 71.0725 -50.87625 72.145 -50.8125 73.25 C-50.33854041 77.13531961 -50.33854041 77.13531961 -47.4375 79.4375 C-46.633125 79.953125 -45.82875 80.46875 -45 81 C-42.36 78.36 -39.72 75.72 -37 73 C-37.42152344 72.31035156 -37.84304687 71.62070313 -38.27734375 70.91015625 C-41.86934266 64.74882165 -43.76584191 60.14182188 -44 53 C-45.07121094 53.01160156 -46.14242187 53.02320313 -47.24609375 53.03515625 C-48.64322743 53.04453299 -50.04036299 53.05363331 -51.4375 53.0625 C-52.14455078 53.07087891 -52.85160156 53.07925781 -53.58007812 53.08789062 C-55.38693559 53.09653588 -57.19387603 53.05220011 -59 53 C-60 52 -60 52 -60.09765625 49.71484375 C-60.08605469 48.79832031 -60.07445312 47.88179687 -60.0625 46.9375 C-60.05347656 46.01839844 -60.04445312 45.09929687 -60.03515625 44.15234375 C-60.01775391 43.08693359 -60.01775391 43.08693359 -60 42 C-60.99 41.67 -61.98 41.34 -63 41 C-63.33 38.69 -63.66 36.38 -64 34 C-61 32 -61 32 -57.875 32.3125 C-55 33 -55 33 -54 34 C-53.95919217 35.99958364 -53.95745644 38.00045254 -54 40 C-55.32 40.66 -56.64 41.32 -58 42 C-58 44.64 -58 47.28 -58 50 C-53.71 50 -49.42 50 -45 50 C-44.773125 48.35 -44.54625 46.7 -44.3125 45 C-43.44482418 40.04276389 -41.97230925 36.7272653 -38.92578125 32.75390625 C-37.82255439 31.03388532 -37.82255439 31.03388532 -38.12890625 28.99609375 C-39.51731743 25.81457756 -42.02252717 24.02388942 -44.6015625 21.78125 C-46 20 -46 20 -45.83203125 17.89453125 C-45 16 -45 16 -43.0625 14.1875 C-40.40370372 11.36756455 -39.91148273 8.71604497 -39 5 C-38.67 4.67 -38.34 4.34 -38 4 C-31.28 4.72 -31.28 4.72 -30 6 C-29.71731425 8.68551458 -29.60176688 10.36751211 -31.0625 12.6875 C-33 14 -33 14 -36.5625 14.9375 C-37.696875 15.288125 -38.83125 15.63875 -40 16 C-40.66 17.32 -41.32 18.64 -42 20 C-39.69 22.31 -37.38 24.62 -35 27 C-34.0821875 26.4946875 -33.164375 25.989375 -32.21875 25.46875 C-30.97962365 24.81163754 -29.74001396 24.15543595 -28.5 23.5 C-27.59894531 22.99919922 -27.59894531 22.99919922 -26.6796875 22.48828125 C-26.07382813 22.17246094 -25.46796875 21.85664062 -24.84375 21.53125 C-24.29912109 21.23798828 -23.75449219 20.94472656 -23.19335938 20.64257812 C-21 20 -21 20 -13 20 C-13 14.72 -13 9.44 -13 4 C-10.49348958 3.83723958 -7.98697917 3.67447917 -5.48046875 3.51171875 C-2.63366639 2.92442567 -1.94587408 2.0456625 0 0 Z M-35 33 C-39.97197849 39.68797107 -41.88781127 45.58380204 -41.453125 53.921875 C-40.20673956 62.38870024 -35.81537533 69.34826153 -29.01171875 74.5078125 C-22.06027934 79.08974055 -15.23116483 79.77339804 -7 79 C0.19541887 77.26641577 5.52713547 73.90037449 10 68 C14.71855169 60.1741094 15.8945626 53.12245815 15 44 C12.82987538 36.64794231 8.3520003 31.23466687 2 27 C1.34 27 0.68 27 0 27 C0 26.34 0 25.68 0 25 C-12.74951368 20.36381321 -25.90418294 22.60478051 -35 33 Z " fill="#1B274F" transform="translate(100,42)"/>
<path d="M0 0 C2.97 0 5.94 0 9 0 C14.1104823 9.54457724 18.55365324 19.34984695 22.73303223 29.33267212 C23.28620371 30.65301797 23.84260579 31.97201496 24.40222168 33.28964233 C25.19631707 35.16406654 25.97540822 37.04482554 26.75390625 38.92578125 C27.21095947 40.02317627 27.6680127 41.12057129 28.13891602 42.2512207 C29 45 29 45 28 48 C12.82 48 -2.36 48 -18 48 C-19.20547945 43.17808219 -19.20547945 43.17808219 -18 40 C-15.02640551 38.51320275 -12.33700821 38.88887395 -9.0234375 38.90234375 C-7.99556625 38.90446617 -7.99556625 38.90446617 -6.94692993 38.90663147 C-4.75624239 38.91223325 -2.5656567 38.92478594 -0.375 38.9375 C1.10937352 38.94251478 2.59374865 38.94707772 4.078125 38.95117188 C7.7188209 38.96135279 11.35929631 38.98092763 15 39 C11.7 31.08 8.4 23.16 5 15 C3.11022098 17.83466853 2.11904393 20.1839763 1 23.375 C0.33823142 25.25173434 -0.32836688 27.12677326 -1 29 C-1.309375 29.89976563 -1.61875 30.79953125 -1.9375 31.7265625 C-3 34 -3 34 -6 36 C-8.33199388 36.07905064 -10.66832622 36.08798769 -13 36 C-13.9499165 33.46688934 -14.26651661 31.69236381 -13.28125 29.1328125 C-12.22121721 27.06896078 -11.11235114 25.03603494 -10 23 C-8.97119907 20.67401529 -7.97181287 18.34929075 -7 16 C-6.1466067 13.93717989 -5.29237785 11.87470533 -4.4375 9.8125 C-4.02371094 8.80832031 -3.60992187 7.80414063 -3.18359375 6.76953125 C-2.20366382 4.4765599 -1.11516638 2.23033276 0 0 Z " fill="#081540" transform="translate(355,69)"/>
<path d="M0 0 C3.72783497 -0.78164282 5.43411739 -1.08942762 9 0 C12.39157532 3.2923097 14.95827315 7.07851452 17.59521484 10.97509766 C19.1049789 13.15131995 20.68869524 15.25402445 22.30078125 17.35546875 C22.85338623 18.07605469 23.40599121 18.79664062 23.9753418 19.5390625 C24.79192261 20.60253906 24.79192261 20.60253906 25.625 21.6875 C31 28.68855724 31 28.68855724 31 31 C31.66 31 32.32 31 33 31 C33 20.77 33 10.54 33 0 C35.64 0 38.28 0 41 0 C42.5566588 1.5566588 42.12721829 3.04851709 42.12939453 5.21264648 C42.13254669 6.10704941 42.13569885 7.00145233 42.13894653 7.92295837 C42.1369223 8.89584305 42.13489807 9.86872772 42.1328125 10.87109375 C42.13376923 11.86375748 42.13472595 12.8564212 42.13571167 13.87916565 C42.13639366 15.98332787 42.13453806 18.08749218 42.13037109 20.19165039 C42.12502874 23.4201326 42.13031255 26.64847531 42.13671875 29.87695312 C42.13605786 31.91666698 42.13477648 33.95638074 42.1328125 35.99609375 C42.13483673 36.96695419 42.13686096 37.93781464 42.13894653 38.93809509 C42.13421829 40.28442772 42.13421829 40.28442772 42.12939453 41.65795898 C42.12859894 42.44992172 42.12780334 43.24188446 42.12698364 44.05784607 C42 46 42 46 41 48 C34.32102286 48.9374003 34.32102286 48.9374003 31.33203125 46.81640625 C29.37529371 44.64708487 27.69577948 42.38130735 26 40 C25.5879834 39.42540039 25.1759668 38.85080078 24.75146484 38.25878906 C22.25840099 34.77474348 19.79929352 31.26871154 17.35546875 27.75 C15.0046332 24.38702854 12.58493854 21.08767505 10.11328125 17.8125 C9.14853882 16.53016479 9.14853882 16.53016479 8.16430664 15.22192383 C6.90682565 13.55709662 5.64189211 11.89786737 4.36889648 10.24487305 C3.79856689 9.48730713 3.2282373 8.72974121 2.640625 7.94921875 C2.13047852 7.28237061 1.62033203 6.61552246 1.09472656 5.9284668 C0 4 0 4 0 0 Z " fill="#06123E" transform="translate(288,69)"/>
<path d="M0 0 C0.495 0.99 0.495 0.99 1 2 C-0.32 2 -1.64 2 -3 2 C-1.515 4.97 -1.515 4.97 0 8 C1.65 7.67 3.3 7.34 5 7 C4.505 5.515 4.505 5.515 4 4 C8.13689266 5.37896422 8.99217938 7.43708343 10.98046875 11.19140625 C13.03336825 16.84671178 13.14042254 23.41026087 11.3125 29.1640625 C10.5 30.8125 10.5 30.8125 9 33 C7.71403404 30.42806809 8.25588873 29.70480426 9.0625 27 C10.33421097 21.73392168 9.7386997 17.10984523 8 12 C7.34 11.34 6.68 10.68 6 10 C3.77871445 9.97691403 3.77871445 9.97691403 1.375 10.375 C0.55773437 10.48585938 -0.25953125 10.59671875 -1.1015625 10.7109375 C-1.72804687 10.80632812 -2.35453125 10.90171875 -3 11 C-3.061875 10.113125 -3.12375 9.22625 -3.1875 8.3125 C-4.18171055 4.25918008 -5.90101124 2.70168251 -9 0 C-9.33 3.63 -9.66 7.26 -10 11 C-8.02 11 -6.04 11 -4 11 C-4 11.33 -4 11.66 -4 12 C-5.98 12 -7.96 12 -10 12 C-10 14.97 -10 17.94 -10 21 C-7.03 21 -4.06 21 -1 21 C-1 21.33 -1 21.66 -1 22 C-3.97 22 -6.94 22 -10 22 C-10 24.97 -10 27.94 -10 31 C-7.03 31 -4.06 31 -1 31 C-5.17908064 33.08954032 -5.80410573 33.16552619 -10 32 C-10 35.3 -10 38.6 -10 42 C-8.35 41.34 -6.7 40.68 -5 40 C-5 40.66 -5 41.32 -5 42 C-3.02 41.505 -3.02 41.505 -1 41 C-1.495 41.99 -1.495 41.99 -2 43 C-5.30335066 44.10111689 -7.89832137 44.20226528 -11.375 44.25 C-12.49648437 44.27578125 -13.61796875 44.3015625 -14.7734375 44.328125 C-18.29106057 43.97040062 -20.14765975 43.02975523 -23 41 C-22.360625 40.87625 -21.72125 40.7525 -21.0625 40.625 C-20.381875 40.41875 -19.70125 40.2125 -19 40 C-18.67 39.34 -18.34 38.68 -18 38 C-16.35 39.32 -14.7 40.64 -13 42 C-12.67 38.7 -12.34 35.4 -12 32 C-14.31 32 -16.62 32 -19 32 C-19 31.67 -19 31.34 -19 31 C-16.69 31 -14.38 31 -12 31 C-12 28.03 -12 25.06 -12 22 C-15.3 22 -18.6 22 -22 22 C-22 25.3 -22 28.6 -22 32 C-24.4294516 28.3558226 -24.16179575 26.28758728 -24 22 C-26.97 22 -29.94 22 -33 22 C-33.33 22.66 -33.66 23.32 -34 24 C-34.78857574 17.00504116 -33.97004594 12.64349059 -29.71484375 6.9765625 C-22.02277147 -1.8894707 -11.06581839 -5.24170345 0 0 Z " fill="#1C2850" transform="translate(98,72)"/>
<path d="M0 0 C1.35439668 2.70879335 1.06501451 5.00933268 1 8 C-1.31 9.32 -3.62 10.64 -6 12 C-5.84677292 13.96557862 -5.84677292 13.96557862 -5 16 C-3.0161825 17.1198172 -3.0161825 17.1198172 -0.51953125 17.74609375 C0.39763672 18.02646484 1.31480469 18.30683594 2.25976562 18.59570312 C3.22591797 18.87349609 4.19207031 19.15128906 5.1875 19.4375 C11.88555611 21.37533107 17.01957531 22.98697024 22 28 C23.76498992 31.52997983 23.64801814 35.15593121 23 39 C20.31502699 44.18170068 16.31489909 46.78429269 10.9296875 48.6875 C8.67997043 49.05182665 7.15353474 48.68913112 5 48 C5 45.36 5 42.72 5 40 C7.31 39.01 9.62 38.02 12 37 C12 35.35 12 33.7 12 32 C8.0170393 30.43526544 4.1807975 28.98327088 0 28.0625 C-5.78584038 26.6843766 -12.67112614 24.13201388 -16 19 C-16.69735078 14.73574006 -16.49593672 11.17458696 -14.8125 7.1875 C-10.49988796 1.9826234 -6.74659396 -0.18234038 0 0 Z " fill="#091540" transform="translate(183,69)"/>
<path d="M0 0 C5.43556925 3.26134155 7.05780828 5.17342485 9 11 C11.64 10.67 14.28 10.34 17 10 C20.80154367 14.79325072 21.23536848 20.07023291 21 26 C19.91044826 31.92398663 18.48360509 37.438028 13.5625 41.25 C10.20826969 42.89769208 8.62559228 43.51794175 5 43 C4.34 43 3.68 43 3 43 C2.01 43 1.02 43 0 43 C0 39.7 0 36.4 0 33 C2.31 33 4.62 33 7 33 C4.69 32.67 2.38 32.34 0 32 C0 21.44 0 10.88 0 0 Z " fill="#3A4467" transform="translate(88,71)"/>
<path d="M0 0 C1 1 1 1 1.6875 4.1875 C1 8 1 8 -1.16015625 9.65625 C-2.95254684 10.66720987 -4.77241439 11.63109372 -6.6171875 12.54296875 C-9.30611239 14.1871802 -10.03993166 15.03397882 -11 18 C-11.72583483 24.24029424 -11.56958534 29.64562199 -8 35 C-6.12036423 37.14224864 -6.12036423 37.14224864 -3.5 38 C-1 39 -1 39 1 41 C1.125 44.125 1.125 44.125 1 47 C-0.5625 48.1875 -0.5625 48.1875 -3 49 C-9.97485255 46.89438414 -15.62977904 42.67562444 -19.375 36.375 C-22.59372055 29.68996501 -23.3351798 22.49401983 -21.19921875 15.3046875 C-18.29641172 8.78085314 -14.05548215 4.70813233 -8 1 C-5.05549278 0.01849759 -3.06481021 -0.1613058 0 0 Z " fill="#0C1843" transform="translate(253,69)"/>
<path d="M0 0 C0.78890625 0.06960937 1.5778125 0.13921875 2.390625 0.2109375 C3.18984375 0.26507813 3.9890625 0.31921875 4.8125 0.375 C5.71742188 0.47941406 5.71742188 0.47941406 6.640625 0.5859375 C6.970625 1.5759375 7.300625 2.5659375 7.640625 3.5859375 C6.62426758 5.57543945 6.62426758 5.57543945 5.03515625 7.82421875 C4.46345703 8.64470703 3.89175781 9.46519531 3.30273438 10.31054688 C2.38717773 11.59155273 2.38717773 11.59155273 1.453125 12.8984375 C-0.29919877 15.39602438 -2.05116612 17.89378008 -3.796875 20.39599609 C-5.05888254 22.16477854 -6.39224414 23.88251791 -7.74609375 25.58203125 C-10.02021694 29.81641559 -9.95553864 33.59956526 -9.984375 38.3359375 C-10.00983496 40.03920866 -10.04329768 41.74238481 -10.0859375 43.4453125 C-10.09189941 44.19264648 -10.09786133 44.93998047 -10.10400391 45.70996094 C-10.359375 47.5859375 -10.359375 47.5859375 -12.359375 49.5859375 C-15.921875 49.7734375 -15.921875 49.7734375 -19.359375 49.5859375 C-22.20332911 46.74198339 -21.27351092 39.57306661 -21.38378906 35.79882812 C-21.10276763 24.41928482 -15.07317655 17.02417731 -7.98339844 8.60009766 C-6.53677729 6.80595688 -5.36873027 5.02817106 -4.203125 3.046875 C-2.359375 0.5859375 -2.359375 0.5859375 0 0 Z " fill="#0A1742" transform="translate(526.359375,68.4140625)"/>
<path d="M0 0 C0.94673584 0.00410889 1.89347168 0.00821777 2.86889648 0.01245117 C3.89563477 0.01438477 4.92237305 0.01631836 5.98022461 0.01831055 C7.05594727 0.03055664 8.13166992 0.04280273 9.23999023 0.05541992 C10.31958008 0.05606445 11.39916992 0.05670898 12.51147461 0.05737305 C20.53734426 0.10277394 20.53734426 0.10277394 21.67749023 1.24291992 C21.80350158 2.98949583 21.85328518 4.74184333 21.86499023 6.49291992 C21.87916992 7.44682617 21.89334961 8.40073242 21.90795898 9.38354492 C21.66725433 12.36991451 20.92692823 14.53662734 19.67749023 17.24291992 C19.01749023 17.24291992 18.35749023 17.24291992 17.67749023 17.24291992 C17.4106543 17.83717773 17.14381836 18.43143555 16.86889648 19.04370117 C14.9008801 22.67646584 12.20080241 25.11177792 8.67749023 27.24291992 C5.66350816 27.98445519 2.77615011 28.22886704 -0.32250977 28.24291992 C-1.02395188 23.06978436 -1.02395188 23.06978436 -0.32250977 20.24291992 C1.5513829 18.60053381 3.38509589 17.6049056 5.63452148 16.54370117 C8.24882264 14.87914613 9.25265357 12.95325592 10.67749023 10.24291992 C9.6784668 10.25452148 8.67944336 10.26612305 7.65014648 10.27807617 C6.35979492 10.28709961 5.06944336 10.29612305 3.73999023 10.30541992 C2.4522168 10.31702148 1.16444336 10.32862305 -0.16235352 10.34057617 C-3.32250977 10.24291992 -3.32250977 10.24291992 -4.32250977 9.24291992 C-4.51000977 5.80541992 -4.51000977 5.80541992 -4.32250977 2.24291992 C-2.32250977 0.24291992 -2.32250977 0.24291992 0 0 Z " fill="#0D1A44" transform="translate(258.322509765625,88.757080078125)"/>
<path d="M0 0 C4.53897705 -0.02465392 9.07791543 -0.04283789 13.61694336 -0.05493164 C15.16219766 -0.0599714 16.70744716 -0.0668032 18.25268555 -0.07543945 C20.46925029 -0.08752076 22.68575218 -0.09323173 24.90234375 -0.09765625 C25.5971434 -0.10281754 26.29194305 -0.10797882 27.00779724 -0.11329651 C28.6722933 -0.11349277 30.33665499 -0.06189129 32 0 C33 1 33 1 33.125 4.5 C33 8 33 8 32 9 C30.29227642 9.08713831 28.58101351 9.10700007 26.87109375 9.09765625 C25.31938477 9.09282227 25.31938477 9.09282227 23.73632812 9.08789062 C22.64771484 9.07951172 21.55910156 9.07113281 20.4375 9.0625 C18.7987793 9.05573242 18.7987793 9.05573242 17.12695312 9.04882812 C14.41794568 9.0369984 11.7089662 9.01906231 9 9 C9 15.27 9 21.54 9 28 C6.36 28 3.72 28 1 28 C0 27 0 27 -0.11352539 24.40795898 C-0.10828857 23.28204346 -0.10305176 22.15612793 -0.09765625 20.99609375 C-0.09443359 19.78115234 -0.09121094 18.56621094 -0.08789062 17.31445312 C-0.07951172 16.03505859 -0.07113281 14.75566406 -0.0625 13.4375 C-0.05798828 12.15423828 -0.05347656 10.87097656 -0.04882812 9.54882812 C-0.03699545 6.36583978 -0.02051068 3.18294238 0 0 Z " fill="#06123E" transform="translate(450,89)"/>
<path d="M0 0 C6.15234375 -0.09765625 6.15234375 -0.09765625 8 0 C9.5566588 1.5566588 9.12721829 3.04851709 9.12939453 5.21264648 C9.13254669 6.10704941 9.13569885 7.00145233 9.13894653 7.92295837 C9.1369223 8.89584305 9.13489807 9.86872772 9.1328125 10.87109375 C9.13376923 11.86375748 9.13472595 12.8564212 9.13571167 13.87916565 C9.13639366 15.98332787 9.13453806 18.08749218 9.13037109 20.19165039 C9.12502874 23.4201326 9.13031255 26.64847531 9.13671875 29.87695312 C9.13605786 31.91666698 9.13477648 33.95638074 9.1328125 35.99609375 C9.13483673 36.96695419 9.13686096 37.93781464 9.13894653 38.93809509 C9.13579437 39.83565018 9.13264221 40.73320526 9.12939453 41.65795898 C9.12820114 42.84590309 9.12820114 42.84590309 9.12698364 44.05784607 C9 46 9 46 8 48 C5.66705225 48.04241723 3.33297433 48.04092937 1 48 C0 47 0 47 -0.12025452 45.09544373 C-0.11803391 44.26271439 -0.11581329 43.42998505 -0.11352539 42.57202148 C-0.11344986 41.63112167 -0.11337433 40.69022186 -0.11329651 39.72080994 C-0.10813522 38.69790359 -0.10297394 37.67499725 -0.09765625 36.62109375 C-0.0962413 35.57929459 -0.09482635 34.53749542 -0.09336853 33.46412659 C-0.0877508 30.12188906 -0.0751953 26.77971743 -0.0625 23.4375 C-0.05748728 21.17773534 -0.05292398 18.91796963 -0.04882812 16.65820312 C-0.03777561 11.10544609 -0.02102024 5.55272775 0 0 Z " fill="#04113D" transform="translate(390,69)"/>
<path d="M0 0 C2.97 0 5.94 0 9 0 C9.33 2.31 9.66 4.62 10 7 C10.33 4.69 10.66 2.38 11 0 C14.3 0 17.6 0 21 0 C21 6.93 21 13.86 21 21 C19.35 20.01 17.7 19.02 16 18 C15.67 18.33 15.34 18.66 15 19 C11.10066414 19.07798672 9.04847626 18.90139542 6.05078125 16.32421875 C3.00059654 12.92873011 -0.01582536 9.5518077 -1 5 C-0.625 2.1875 -0.625 2.1875 0 0 Z " fill="#1C2850" transform="translate(65,94)"/>
<path d="M0 0 C4.96622349 -0.02465098 9.93241166 -0.04283649 14.89868164 -0.05493164 C16.58944316 -0.0599719 18.28020029 -0.06680405 19.97094727 -0.07543945 C22.39600707 -0.08751857 24.82100944 -0.09323123 27.24609375 -0.09765625 C28.38672523 -0.10539818 28.38672523 -0.10539818 29.55039978 -0.11329651 C31.3673257 -0.11349238 33.18413127 -0.06197277 35 0 C36 1 36 1 36.125 4.5 C36 8 36 8 35 9 C32.49075847 9.10087212 30.00963616 9.13972032 27.5 9.1328125 C26.74912109 9.13376923 25.99824219 9.13472595 25.22460938 9.13571167 C23.63411373 9.13639338 22.04361533 9.13453972 20.453125 9.13037109 C18.01035345 9.12502267 15.56776579 9.13031634 13.125 9.13671875 C11.58333293 9.13605797 10.04166597 9.1347768 8.5 9.1328125 C7.76458984 9.13483673 7.02917969 9.13686096 6.27148438 9.13894653 C1.11495161 9.11495161 1.11495161 9.11495161 0 8 C-0.14115161 5.32941149 -0.04247107 2.67567762 0 0 Z " fill="#06133E" transform="translate(450,69)"/>
<path d="M0 0 C0 7 0 14 0 21 C-1.81242052 21.02687279 -3.62495233 21.04633715 -5.4375 21.0625 C-6.44683594 21.07410156 -7.45617187 21.08570312 -8.49609375 21.09765625 C-11 21 -11 21 -12 20 C-14.67058851 19.85884839 -17.32432238 19.95752893 -20 20 C-20.32469403 15.34605219 -19.79790518 12.76641082 -17 9 C-16.34 8.67 -15.68 8.34 -15 8 C-14.7525 7.38125 -14.505 6.7625 -14.25 6.125 C-12.47940018 3.1149803 -10.13379754 2.36252067 -7 1 C-7 1.66 -7 2.32 -7 3 C-6.401875 2.505 -5.80375 2.01 -5.1875 1.5 C-3 0 -3 0 0 0 Z " fill="#4C5574" transform="translate(86,72)"/>
<path d="M0 0 C1.35048039 2.70096077 1.12963577 4.82726517 1.1328125 7.84765625 C1.13474609 9.59079102 1.13474609 9.59079102 1.13671875 11.36914062 C1.13285156 12.58794922 1.12898438 13.80675781 1.125 15.0625 C1.12886719 16.28517578 1.13273437 17.50785156 1.13671875 18.76757812 C1.13542969 19.92837891 1.13414062 21.08917969 1.1328125 22.28515625 C1.13168457 23.35644775 1.13055664 24.42773926 1.12939453 25.53149414 C1 28 1 28 0 29 C-1.8125 29.1328125 -1.8125 29.1328125 -4 29.125 C-4.721875 29.12757812 -5.44375 29.13015625 -6.1875 29.1328125 C-8 29 -8 29 -9 28 C-9.08758003 26.00035018 -9.10696576 23.9976389 -9.09765625 21.99609375 C-9.09443359 20.78115234 -9.09121094 19.56621094 -9.08789062 18.31445312 C-9.07951172 17.03505859 -9.07113281 15.75566406 -9.0625 14.4375 C-9.05798828 13.15423828 -9.05347656 11.87097656 -9.04882812 10.54882812 C-9.03699545 7.36583978 -9.02051068 4.18294238 -9 1 C-6.04335481 -0.4783226 -3.25770263 -0.06032783 0 0 Z " fill="#121E48" transform="translate(438,88)"/>
<path d="M0 0 C3.5 0.125 3.5 0.125 4.5 1.125 C4.59983058 3.11257028 4.63080753 5.1036752 4.6328125 7.09375 C4.63474609 8.90939453 4.63474609 8.90939453 4.63671875 10.76171875 C4.63285156 12.03660156 4.62898437 13.31148437 4.625 14.625 C4.62886719 15.89988281 4.63273438 17.17476562 4.63671875 18.48828125 C4.63542969 19.69871094 4.63414062 20.90914062 4.6328125 22.15625 C4.63168457 23.27580078 4.63055664 24.39535156 4.62939453 25.54882812 C4.5 28.125 4.5 28.125 3.5 29.125 C0 29.25 0 29.25 -3.5 29.125 C-5.30279191 27.32220809 -4.63036605 24.58452299 -4.6328125 22.15625 C-4.63410156 20.94582031 -4.63539063 19.73539063 -4.63671875 18.48828125 C-4.63285156 17.21339844 -4.62898437 15.93851563 -4.625 14.625 C-4.62886719 13.35011719 -4.63273438 12.07523438 -4.63671875 10.76171875 C-4.63542969 9.55128906 -4.63414062 8.34085938 -4.6328125 7.09375 C-4.63168457 5.97419922 -4.63055664 4.85464844 -4.62939453 3.70117188 C-4.43018614 -0.2649544 -4.10975636 0.14677701 0 0 Z " fill="#06133E" transform="translate(218.5,87.875)"/>
<path d="M0 0 C2.05078125 0.03255208 4.1015625 0.06510417 6.15234375 0.09765625 C6.52359375 1.02578125 6.89484375 1.95390625 7.27734375 2.91015625 C9.47328633 6.64325863 11.22180459 7.47417269 15.15234375 9.09765625 C16.15234375 10.09765625 16.15234375 10.09765625 16.27734375 13.09765625 C16.15234375 16.09765625 16.15234375 16.09765625 15.15234375 17.09765625 C8.36806108 16.75269272 4.26524047 15.21055297 -0.66015625 10.28515625 C-2.29699436 7.26992815 -2.59147479 4.4920606 -2.84765625 1.09765625 C-1.84765625 0.09765625 -1.84765625 0.09765625 0 0 Z " fill="#0B1842" transform="translate(167.84765625,99.90234375)"/>
<path d="M0 0 C3.25749893 -0.83170185 5.76170162 -0.97879395 9 0 C13.28219971 4.28219971 17.07016939 9.21050816 19 15 C17 17 17 17 13.25 17.625 C10.45497851 17.56423866 9.36234187 17.33269572 7.28125 15.421875 C5.72596339 13.34286943 4.35301871 11.21511912 3 9 C2.18888039 7.8948189 1.37656354 6.79051443 0.5625 5.6875 C0.046875 4.800625 -0.46875 3.91375 -1 3 C-0.67 2.01 -0.34 1.02 0 0 Z " fill="#0F1C46" transform="translate(488,69)"/>
<path d="M0 0 C6.42892926 0.33762429 10.79679786 2.74579539 15.40234375 7.11328125 C17.47387228 9.55960956 18.38884947 11.86785355 19 15 C18 16 18 16 14.25 16.375 C10.70715915 16.34348006 10.19354627 16.17050505 7.375 13.6875 C6.59125 12.800625 5.8075 11.91375 5 11 C1.83354526 9.20679176 1.83354526 9.20679176 -1 8 C-1.04241723 5.66705225 -1.04092937 3.33297433 -1 1 C-0.67 0.67 -0.34 0.34 0 0 Z " fill="#04113D" transform="translate(259,69)"/>
<path d="M0 0 C5.01330079 0.34976517 8.10272112 1.8652322 12 5 C14.4761458 8.06260138 15.90691331 9.92950309 16.25 13.875 C16.1675 14.57625 16.085 15.2775 16 16 C13.08944799 17.455276 11.21908202 17.45067148 8 17 C5.9375 14.1875 5.9375 14.1875 4 11 C3.0925 10.525625 2.185 10.05125 1.25 9.5625 C0.5075 9.046875 -0.235 8.53125 -1 8 C-1.375 4.375 -1.375 4.375 -1 1 C-0.67 0.67 -0.34 0.34 0 0 Z " fill="#0C1943" transform="translate(189,69)"/>
<path d="M0 0 C0.804375 -0.00128906 1.60875 -0.00257812 2.4375 -0.00390625 C3.283125 -0.00003906 4.12875 0.00382812 5 0.0078125 C6.2684375 0.00201172 6.2684375 0.00201172 7.5625 -0.00390625 C8.366875 -0.00261719 9.17125 -0.00132813 10 0 C10.7425 0.00112793 11.485 0.00225586 12.25 0.00341797 C14 0.1328125 14 0.1328125 15 1.1328125 C15.125 4.6328125 15.125 4.6328125 15 8.1328125 C13.4779041 9.6549084 12.11789918 9.26240771 10 9.265625 C9.195625 9.26691406 8.39125 9.26820312 7.5625 9.26953125 C6.716875 9.26566406 5.87125 9.26179688 5 9.2578125 C4.154375 9.26167969 3.30875 9.26554687 2.4375 9.26953125 C1.633125 9.26824219 0.82875 9.26695313 0 9.265625 C-0.7425 9.26449707 -1.485 9.26336914 -2.25 9.26220703 C-4 9.1328125 -4 9.1328125 -5 8.1328125 C-5.125 4.6328125 -5.125 4.6328125 -5 1.1328125 C-3.4779041 -0.3892834 -2.11789918 0.00321729 0 0 Z " fill="#091540" transform="translate(408,107.8671875)"/>
<path d="M0 0 C2.31 0 4.62 0 7 0 C7 0.33 7 0.66 7 1 C5.02 1 3.04 1 1 1 C1 3.97 1 6.94 1 10 C3.97 10 6.94 10 10 10 C10 10.33 10 10.66 10 11 C7.03 11 4.06 11 1 11 C1 13.97 1 16.94 1 20 C3.97 20 6.94 20 10 20 C5.82091936 22.08954032 5.19589427 22.16552619 1 21 C1 24.3 1 27.6 1 31 C2.65 30.34 4.3 29.68 6 29 C6 29.66 6 30.32 6 31 C7.32 30.67 8.64 30.34 10 30 C9.67 30.66 9.34 31.32 9 32 C5.69664934 33.10111689 3.10167863 33.20226528 -0.375 33.25 C-1.49648437 33.27578125 -2.61796875 33.3015625 -3.7734375 33.328125 C-7.29106057 32.97040062 -9.14765975 32.02975523 -12 30 C-11.360625 29.87625 -10.72125 29.7525 -10.0625 29.625 C-9.381875 29.41875 -8.70125 29.2125 -8 29 C-7.67 28.34 -7.34 27.68 -7 27 C-4.525 28.98 -4.525 28.98 -2 31 C-1.67 27.7 -1.34 24.4 -1 21 C-3.31 21 -5.62 21 -8 21 C-8 20.67 -8 20.34 -8 20 C-5.69 20 -3.38 20 -1 20 C-1 17.03 -1 14.06 -1 11 C-4.3 11 -7.6 11 -11 11 C-11 14.3 -11 17.6 -11 21 C-13.67927341 16.98108988 -13.15601248 14.75838077 -13 10 C-7.06 9.505 -7.06 9.505 -1 9 C-0.67 6.03 -0.34 3.06 0 0 Z " fill="#101D46" transform="translate(87,83)"/>
<path d="M0 0 C0.721875 0.00257812 1.44375 0.00515625 2.1875 0.0078125 C2.909375 0.00523438 3.63125 0.00265625 4.375 0 C6.1875 0.1328125 6.1875 0.1328125 7.1875 1.1328125 C7.26063567 3.66330652 7.27997527 6.16586087 7.25 8.6953125 C7.24548828 9.40623047 7.24097656 10.11714844 7.23632812 10.84960938 C7.22450864 12.61071263 7.20657263 14.37177286 7.1875 16.1328125 C5.70843108 16.15970466 4.22922517 16.17915871 2.75 16.1953125 C1.51443359 16.21271484 1.51443359 16.21271484 0.25390625 16.23046875 C-1.8125 16.1328125 -1.8125 16.1328125 -2.8125 15.1328125 C-2.91159302 12.80121195 -2.94220504 10.46651308 -2.9375 8.1328125 C-2.94007813 6.8540625 -2.94265625 5.5753125 -2.9453125 4.2578125 C-2.77299118 0.20319332 -2.77299118 0.20319332 0 0 Z " fill="#111D47" transform="translate(431.8125,68.8671875)"/>
<path d="M0 0 C0.33 0 0.66 0 1 0 C1 1.65 1 3.3 1 5 C3.64 5.33 6.28 5.66 9 6 C8.08351749 9.66593006 6.83103806 11.42053938 3.6875 13.375 C0.39250138 15.09086027 -1.39972136 15.07035311 -5 14 C-6.32 14.33 -7.64 14.66 -9 15 C-9 11.7 -9 8.4 -9 5 C-6.03 5 -3.06 5 0 5 C0 3.35 0 1.7 0 0 Z " fill="#212D53" transform="translate(97,99)"/>
<path d="M0 0 C2.97 0 5.94 0 9 0 C9.02685095 2.47923801 9.04676547 4.9581884 9.0625 7.4375 C9.07087891 8.14455078 9.07925781 8.85160156 9.08789062 9.58007812 C9.09653588 11.38693559 9.05220011 13.19387603 9 15 C8 16 8 16 4.5 16.125 C1 16 1 16 0 15 C-0.07313567 12.46950598 -0.09247527 9.96695163 -0.0625 7.4375 C-0.05798828 6.72658203 -0.05347656 6.01566406 -0.04882812 5.28320312 C-0.03700864 3.52209987 -0.01907263 1.76103964 0 0 Z " fill="#05123E" transform="translate(288,101)"/>
<path d="M0 0 C3.5 0.125 3.5 0.125 4.5 1.125 C4.59909302 3.45660055 4.62970504 5.79129942 4.625 8.125 C4.62757813 9.40375 4.63015625 10.6825 4.6328125 12 C4.5 15.125 4.5 15.125 3.5 16.125 C0.82941149 16.26615161 -1.82432238 16.16747107 -4.5 16.125 C-4.52685095 13.64576199 -4.54676547 11.1668116 -4.5625 8.6875 C-4.57506836 7.62692383 -4.57506836 7.62692383 -4.58789062 6.54492188 C-4.59653588 4.73806441 -4.55220011 2.93112397 -4.5 1.125 C-3.5 0.125 -3.5 0.125 0 0 Z " fill="#04113D" transform="translate(218.5,68.875)"/>
<path d="M0 0 C0.33 0 0.66 0 1 0 C1 4.62 1 9.24 1 14 C-1.5390625 14.16276042 -4.078125 14.32552083 -6.6171875 14.48828125 C-9.36221601 14.7882039 -9.36221601 14.7882039 -11 18 C-14 18.375 -14 18.375 -17 18 C-19.1387261 14.79191085 -19.47730962 13.72301503 -19 10 C-16 8 -16 8 -12.8125 8.375 C-11.884375 8.58125 -10.95625 8.7875 -10 9 C-9.67 9.99 -9.34 10.98 -9 12 C-6.03 12 -3.06 12 0 12 C0 8.04 0 4.08 0 0 Z " fill="#0E1A44" transform="translate(87,126)"/>
<path d="M0 0 C2.46770934 0.42546713 3.71199641 0.68695262 5.4375 2.5625 C6.94532634 4.28421498 6.94532634 4.28421498 9.4375 3.9375 C12 4 12 4 14.375 5.625 C16 8 16 8 15.75 11.25 C15.5025 12.1575 15.255 13.065 15 14 C12.69 14.33 10.38 14.66 8 15 C5.45635271 12.01397927 4.66949191 9.82566805 4 6 C3.00916033 3.76591887 3.00916033 3.76591887 2 2 C1.34 2 0.68 2 0 2 C0 1.34 0 0.68 0 0 Z " fill="#29345A" transform="translate(119,61)"/>
<path d="M0 0 C6.72 0.72 6.72 0.72 8 2 C8.28268575 4.68551458 8.39823312 6.36751211 6.9375 8.6875 C5 10 5 10 1.5625 10.9375 C-2.13989712 12.0417237 -3.56981585 13.08377902 -6 16 C-6.66 15.67 -7.32 15.34 -8 15 C-7.0360896 12.84973834 -6.28912076 11.25298067 -4.5 9.6875 C-2.24527729 7.15093695 -1.83926644 4.23717056 -1 1 C-0.67 0.67 -0.34 0.34 0 0 Z " fill="#384265" transform="translate(62,46)"/>
<path d="M0 0 C2.97 0 5.94 0 9 0 C7.25 8.625 7.25 8.625 5 12 C3.02 11.34 1.04 10.68 -1 10 C-1.125 3.375 -1.125 3.375 0 0 Z " fill="#EDEDF1" transform="translate(100,94)"/>
<path d="M0 0 C3.3 0 6.6 0 10 0 C10 2.97 10 5.94 10 9 C3.06640625 9.09765625 3.06640625 9.09765625 1 9 C0 8 0 8 -0.09765625 6.15234375 C-0.06510417 4.1015625 -0.03255208 2.05078125 0 0 Z " fill="#F9F9FA" transform="translate(76,94)"/>
<path d="M0 0 C3.3 0 6.6 0 10 0 C9.67 2.97 9.34 5.94 9 9 C6.03 9 3.06 9 0 9 C0 6.03 0 3.06 0 0 Z " fill="#F9F9FA" transform="translate(88,94)"/>
<path d="M0 0 C2.64 0 5.28 0 8 0 C8.33 3.3 8.66 6.6 9 10 C7.02 10.66 5.04 11.32 3 12 C-0.42857143 4.71428571 -0.42857143 4.71428571 0 0 Z " fill="#F5F6F7" transform="translate(66,94)"/>
<path d="M0 0 C3.80984844 2.77079887 4.06840752 6.62868145 5 11 C2.03 11 -0.94 11 -4 11 C-4.33 8.03 -4.66 5.06 -5 2 C-3.35 1.34 -1.7 0.68 0 0 Z " fill="#F9F9FA" transform="translate(104,81)"/>
<path d="M0 0 C2.97 0 5.94 0 9 0 C10.35439668 2.70879335 10.06501451 5.00933268 10 8 C6.7 8 3.4 8 0 8 C0 5.36 0 2.72 0 0 Z " fill="#F9F9FA" transform="translate(88,84)"/>
<path d="M0 0 C0.721875 0.00257812 1.44375 0.00515625 2.1875 0.0078125 C2.909375 0.00523438 3.63125 0.00265625 4.375 0 C6.1875 0.1328125 6.1875 0.1328125 7.1875 1.1328125 C7.22842937 3.46578683 7.22991723 5.79986475 7.1875 8.1328125 C3.8875 8.1328125 0.5875 8.1328125 -2.8125 8.1328125 C-2.85491723 5.79986475 -2.85342937 3.46578683 -2.8125 1.1328125 C-1.8125 0.1328125 -1.8125 0.1328125 0 0 Z " fill="#FBFBFC" transform="translate(78.8125,83.8671875)"/>
<path d="M0 0 C2.86724686 0.57344937 3.8614515 0.8614515 6 3 C5.96712417 5.72869407 5.43602229 8.2966618 5 11 C2.36 11 -0.28 11 -3 11 C-3.32613618 6.32538149 -2.70582788 3.83325617 0 0 Z " fill="#F3F4F6" transform="translate(69,81)"/>
<path d="M0 0 C3.625 0.375 3.625 0.375 7 1 C7.33 1.99 7.66 2.98 8 4 C7.34 4 6.68 4 6 4 C5.34 5.32 4.68 6.64 4 8 C3.34 8 2.68 8 2 8 C2 8.66 2 9.32 2 10 C0.68 9.34 -0.64 8.68 -2 8 C-2.125 5.125 -2.125 5.125 -2 2 C-1.34 1.34 -0.68 0.68 0 0 Z " fill="#283358" transform="translate(42,111)"/>
<path d="M0 0 C5.87412587 3.52447552 5.87412587 3.52447552 8 8 C8 8.99 8 9.98 8 11 C5.36 11.33 2.72 11.66 0 12 C0 8.04 0 4.08 0 0 Z " fill="#F3F3F5" transform="translate(88,71)"/>
<path d="M0 0 C0.99 0 1.98 0 3 0 C3 3.63 3 7.26 3 11 C0.36 10.67 -2.28 10.34 -5 10 C-4.49942848 5.61999924 -3.06806466 3.15830185 0 0 Z " fill="#FAFAFB" transform="translate(83,72)"/>
<path d="M0 0 C0 3.63 0 7.26 0 11 C-3.50714051 9.10424837 -5.94461059 7.46170848 -8 4 C-8 3.01 -8 2.02 -8 1 C-5 0 -5 0 0 0 Z " fill="#F0F1F3" transform="translate(86,104)"/>
<path d="M0 0 C0.99 0.66 1.98 1.32 3 2 C3.1875 5.125 3.1875 5.125 3 8 C0.64561267 9.42944945 -0.48032433 10.08661261 -3.25 9.625 C-3.8275 9.41875 -4.405 9.2125 -5 9 C-5 6.66666667 -5 4.33333333 -5 2 C-3.35 2 -1.7 2 0 2 C0 1.34 0 0.68 0 0 Z " fill="#1D2951" transform="translate(135,103)"/>
<path d="M0 0 C0.33 0 0.66 0 1 0 C1.33 2.97 1.66 5.94 2 9 C3.65 8.67 5.3 8.34 7 8 C7 8.66 7 9.32 7 10 C8.32 9.67 9.64 9.34 11 9 C10.67 9.66 10.34 10.32 10 11 C6.69664934 12.10111689 4.10167863 12.20226528 0.625 12.25 C-0.49648437 12.27578125 -1.61796875 12.3015625 -2.7734375 12.328125 C-6.29106057 11.97040062 -8.14765975 11.02975523 -11 9 C-10.360625 8.87625 -9.72125 8.7525 -9.0625 8.625 C-8.381875 8.41875 -7.70125 8.2125 -7 8 C-6.67 7.34 -6.34 6.68 -6 6 C-3.525 7.98 -3.525 7.98 -1 10 C-0.67 6.7 -0.34 3.4 0 0 Z " fill="#1E2A51" transform="translate(86,104)"/>
<path d="M0 0 C2.64 0.33 5.28 0.66 8 1 C5.25 7.75 5.25 7.75 3 10 C2.01 10 1.02 10 0 10 C0 6.7 0 3.4 0 0 Z " fill="#EAEBEF" transform="translate(88,104)"/>
<path d="M0 0 C3.3125 0.125 3.3125 0.125 7 1 C8.9375 4.0625 8.9375 4.0625 10 7 C8.02 7.33 6.04 7.66 4 8 C2.68 5.36 1.36 2.72 0 0 Z " fill="#D3D5DD" transform="translate(94,73)"/>
<path d="M0 0 C6.72 0.72 6.72 0.72 8 2 C8.04063832 3.66617115 8.042721 5.33388095 8 7 C6.02 7.99 6.02 7.99 4 9 C4.33 7.35 4.66 5.7 5 4 C2.525 3.01 2.525 3.01 0 2 C-0.66 3.32 -1.32 4.64 -2 6 C-1.125 1.125 -1.125 1.125 0 0 Z " fill="#18244C" transform="translate(62,46)"/>
<path d="M0 0 C2.475 0.99 2.475 0.99 5 2 C1.67692308 6.8 1.67692308 6.8 -1.75 7.8125 C-2.4925 7.874375 -3.235 7.93625 -4 8 C-2.68 5.36 -1.36 2.72 0 0 Z " fill="#E2E3E8" transform="translate(98,105)"/>
<path d="M0 0 C0.33 0 0.66 0 1 0 C1.04254356 1.99954746 1.04080783 4.00041636 1 6 C0 7 0 7 -2.06640625 7.09765625 C-2.89011719 7.08605469 -3.71382813 7.07445313 -4.5625 7.0625 C-5.38878906 7.05347656 -6.21507813 7.04445313 -7.06640625 7.03515625 C-7.70449219 7.02355469 -8.34257813 7.01195313 -9 7 C-9.33 7.66 -9.66 8.32 -10 9 C-10 6.69 -10 4.38 -10 2 C-9.34 1.67 -8.68 1.34 -8 1 C-8 2.32 -8 3.64 -8 5 C-5.36 5 -2.72 5 0 5 C0 3.35 0 1.7 0 0 Z " fill="#263157" transform="translate(74,87)"/>
<path d="M0 0 C1.65 0.33 3.3 0.66 5 1 C4.67 2.65 4.34 4.3 4 6 C2.35 5.67 0.7 5.34 -1 5 C-0.67 3.35 -0.34 1.7 0 0 Z " fill="#DDDFE5" transform="translate(100,44)"/>
<path d="M0 0 C1.67542976 0.28604898 3.34385343 0.61781233 5 1 C4.67 2.65 4.34 4.3 4 6 C2.68 6 1.36 6 0 6 C-0.38218767 4.34385343 -0.71395102 2.67542976 -1 1 C-0.67 0.67 -0.34 0.34 0 0 Z " fill="#E0E2E7" transform="translate(39,76)"/>
<path d="M0 0 C0.33 0.66 0.66 1.32 1 2 C-0.98 4.97 -0.98 4.97 -3 8 C-4.32 7.67 -5.64 7.34 -7 7 C-5.54744301 3.17053157 -3.57104439 1.87949705 0 0 Z " fill="#E2E4E9" transform="translate(78,73)"/>
<path d="M0 0 C2.0625 0.4375 2.0625 0.4375 4 1 C3.67 2.65 3.34 4.3 3 6 C1.35 5.67 -0.3 5.34 -2 5 C-1.125 1.125 -1.125 1.125 0 0 Z " fill="#E1E3E8" transform="translate(72,136)"/>
<path d="M0 0 C3.14605485 1.43002493 3.75452774 3.86376518 5.0625 6.9375 C1.38829134 6.63131595 0.28114487 6.17978216 -2.25 3.375 C-2.806875 2.570625 -3.36375 1.76625 -3.9375 0.9375 C-1.9375 -0.0625 -1.9375 -0.0625 0 0 Z " fill="#D3D6DD" transform="translate(74.9375,106.0625)"/>
<path d="M0 0 C2.475 0.99 2.475 0.99 5 2 C4.01 2.33 3.02 2.66 2 3 C2.66 4.65 3.32 6.3 4 8 C3.01 8 2.02 8 1 8 C0.67 7.01 0.34 6.02 0 5 C-1.65 4.67 -3.3 4.34 -5 4 C-4.34 3.34 -3.68 2.68 -3 2 C-2.01 2 -1.02 2 0 2 C0 1.34 0 0.68 0 0 Z " fill="#2F3A5E" transform="translate(76,102)"/>
<path d="M0 0 C2.0625 0.4375 2.0625 0.4375 4 1 C4 2.32 4 3.64 4 5 C2.68 5.33 1.36 5.66 0 6 C-0.38218767 4.34385343 -0.71395102 2.67542976 -1 1 C-0.67 0.67 -0.34 0.34 0 0 Z " fill="#EDEEF1" transform="translate(128,68)"/>
<path d="M0 0 C2.475 0.495 2.475 0.495 5 1 C4.67 2.65 4.34 4.3 4 6 C2.68 5.67 1.36 5.34 0 5 C0 3.35 0 1.7 0 0 Z " fill="#ECEDF0" transform="translate(107,133)"/>
<path d="M0 0 C1.65 0 3.3 0 5 0 C5.33 1.32 5.66 2.64 6 4 C4.35 4.33 2.7 4.66 1 5 C0.67 3.35 0.34 1.7 0 0 Z " fill="#F5F6F7" transform="translate(130,105)"/>
<path d="M0 0 C0.4125 0.515625 0.825 1.03125 1.25 1.5625 C2.89081865 3.25326429 2.89081865 3.25326429 5.0625 2.8125 C7.18712526 2.06529664 7.18712526 2.06529664 9 0 C9 1.65 9 3.3 9 5 C5.625 5.625 5.625 5.625 2 6 C1.34 5.34 0.68 4.68 0 4 C0 2.68 0 1.36 0 0 Z " fill="#142049" transform="translate(125,70)"/>
<path d="M0 0 C2.475 0.495 2.475 0.495 5 1 C5 2.32 5 3.64 5 5 C3.35 5 1.7 5 0 5 C0 3.35 0 1.7 0 0 Z " fill="#F0F1F3" transform="translate(62,48)"/>
<path d="M0 0 C2.475 0.495 2.475 0.495 5 1 C5 2.32 5 3.64 5 5 C3.35 5 1.7 5 0 5 C0 3.35 0 1.7 0 0 Z " fill="#F7F7F8" transform="translate(42,113)"/>
<path d="M0 0 C2 1 2 1 3.375 4.4375 C4.63566608 8.03852123 4.63566608 8.03852123 7.1875 9.4375 C7.785625 9.623125 8.38375 9.80875 9 10 C6.69 10.33 4.38 10.66 2 11 C1.855625 10.113125 1.71125 9.22625 1.5625 8.3125 C1.08980022 5.52882354 0.56929815 2.76516243 0 0 Z " fill="#283359" transform="translate(93,72)"/>
<path d="M0 0 C0.33 0.66 0.66 1.32 1 2 C2.32 1.67 3.64 1.34 5 1 C4.67 1.66 4.34 2.32 4 3 C0.52674819 4.1577506 -2.36067448 4.06866652 -6 4 C-4.60804085 1.2160817 -2.84424221 1.02101003 0 0 Z " fill="#0D1944" transform="translate(92,112)"/>
<path d="M0 0 C0.66 2.64 1.32 5.28 2 8 C0.0625 7.3125 0.0625 7.3125 -2 6 C-2.75 3.375 -2.75 3.375 -3 1 C-1 0 -1 0 0 0 Z " fill="#29345A" transform="translate(107,133)"/>
<path d="M0 0 C1.27875 0.103125 2.5575 0.20625 3.875 0.3125 C4.95394531 0.39951172 4.95394531 0.39951172 6.0546875 0.48828125 C8 1 8 1 10 4 C8.02 3.34 6.04 2.68 4 2 C3.67 2.66 3.34 3.32 3 4 C2.01 3.34 1.02 2.68 0 2 C0 1.34 0 0.68 0 0 Z " fill="#0D1A44" transform="translate(89,70)"/>
<path d="M0 0 C2.4375 0.625 2.4375 0.625 5 2 C5.8125 5.125 5.8125 5.125 6 8 C5.67 7.01 5.34 6.02 5 5 C4.34 4.67 3.68 4.34 3 4 C1 3 1 3 0 0 Z " fill="#313C60" transform="translate(129,65)"/>
<path d="M0 0 C1.67542976 0.28604898 3.34385343 0.61781233 5 1 C5.33 2.32 5.66 3.64 6 5 C5.01 5.495 5.01 5.495 4 6 C3.67 5.01 3.34 4.02 3 3 C0.99983534 1.79117904 0.99983534 1.79117904 -1 1 C-0.67 0.67 -0.34 0.34 0 0 Z " fill="#0B1842" transform="translate(40,74)"/>
</svg>
